<?xml version="1.0" encoding="UTF-8" standalone="no"?>
<!DOCTYPE svg PUBLIC "-//W3C//DTD SVG 1.1//EN" "http://www.w3.org/Graphics/SVG/1.1/DTD/svg11.dtd">
<svg version="1.1" xmlns="http://www.w3.org/2000/svg" xmlns:xlink="http://www.w3.org/1999/xlink" preserveAspectRatio="xMidYMid meet" viewBox="0 0 400 400" width="400" height="400"><defs><path d="M41.66 139.98L191.62 139.98L182.76 126.37L28.05 126.37L28.05 303.2L140.23 303.2L160.26 289.59L41.66 289.59L41.66 139.98Z" id="aeqGSFwCr"></path><path d="M280.57 289.59L292.78 303.2L300.81 303.2L300.81 204.67L287.2 199.88L287.2 289.59L280.57 289.59Z" id="c2d0JPcI"></path><path d="M209.95 170.03C209.95 170.03 209.95 170.03 209.95 170.03C209.95 176.24 209.95 179.69 209.95 180.38C209.95 180.38 209.95 180.38 209.95 180.38C161.24 180.38 134.17 180.38 128.76 180.38C128.76 180.38 128.76 180.38 128.76 180.38C128.76 174.17 128.76 170.72 128.76 170.03C128.76 170.03 128.76 170.03 128.76 170.03C177.47 170.03 204.54 170.03 209.95 170.03Z" id="glmNUmNzd"></path><path d="M240.2 196.57C240.2 196.57 240.2 196.57 240.2 196.57C240.2 203.42 240.2 207.22 240.2 207.98C240.2 207.98 240.2 207.98 240.2 207.98C155.21 207.98 107.99 207.98 98.54 207.98C98.54 207.98 98.54 207.98 98.54 207.98C98.54 201.13 98.54 197.33 98.54 196.57C98.54 196.57 98.54 196.57 98.54 196.57C183.54 196.57 230.76 196.57 240.2 196.57Z" id="g3bDCliYhV"></path><path d="M240.2 220.48C240.2 220.48 240.2 220.48 240.2 220.48C240.2 227.33 240.2 231.14 240.2 231.9C240.2 231.9 240.2 231.9 240.2 231.9C155.21 231.9 107.99 231.9 98.54 231.9C98.54 231.9 98.54 231.9 98.54 231.9C98.54 225.05 98.54 221.24 98.54 220.48C98.54 220.48 98.54 220.48 98.54 220.48C183.54 220.48 230.76 220.48 240.2 220.48Z" id="f1umwKOuk5"></path><path d="M240.2 243.1C240.2 243.1 240.2 243.1 240.2 243.1C240.2 249.95 240.2 253.76 240.2 254.52C240.2 254.52 240.2 254.52 240.2 254.52C155.21 254.52 107.99 254.52 98.54 254.52C98.54 254.52 98.54 254.52 98.54 254.52C98.54 247.67 98.54 243.86 98.54 243.1C98.54 243.1 98.54 243.1 98.54 243.1C183.54 243.1 230.76 243.1 240.2 243.1Z" id="a2BhvG87Dh"></path><path d="M226.65 262.15C209.74 262.15 196.01 275.85 196.01 292.82C196.01 309.72 209.73 323.45 226.65 323.45C243.59 323.44 257.32 309.72 257.32 292.82C257.32 275.87 243.59 262.15 226.65 262.15Z" id="eeJBs9yeX"></path><path d="M251.5 370.3L263.33 339.2L296.32 334.88L271.5 303.5L226.67 338.91L251.5 370.3Z" id="d5NpYTJ6QQ"></path><path d="M178.95 329.45L183.26 362.44L214.66 337.63L179.24 292.78L147.83 317.62L178.95 329.45Z" id="ebKFhPNEf5"></path><path d="M180.76 42.84L209.59 63.38L179.07 106.23L231.4 172.87L307.58 197.79L338.1 154.95L352.13 164.92L330.47 195.32L323.47 190.31L305.15 216.02L326.97 231.56L345.26 205.86L340.6 202.51L362.25 172.15L370.8 178.25L380.19 165.1L190.12 29.7L180.76 42.84Z" id="bz44oXIpf"></path></defs><g><g><g><use xlink:href="#aeqGSFwCr" opacity="1" fill="#2b1e55" fill-opacity="1"></use><g><use xlink:href="#aeqGSFwCr" opacity="1" fill-opacity="0" stroke="#000000" stroke-width="1" stroke-opacity="0"></use></g></g><g><use xlink:href="#c2d0JPcI" opacity="1" fill="#2b1e55" fill-opacity="1"></use><g><use xlink:href="#c2d0JPcI" opacity="1" fill-opacity="0" stroke="#000000" stroke-width="1" stroke-opacity="0"></use></g></g><g><use xlink:href="#glmNUmNzd" opacity="1" fill="#2b1e55" fill-opacity="1"></use><g><use xlink:href="#glmNUmNzd" opacity="1" fill-opacity="0" stroke="#000000" stroke-width="1" stroke-opacity="0"></use></g></g><g><use xlink:href="#g3bDCliYhV" opacity="1" fill="#2b1e55" fill-opacity="1"></use><g><use xlink:href="#g3bDCliYhV" opacity="1" fill-opacity="0" stroke="#000000" stroke-width="1" stroke-opacity="0"></use></g></g><g><use xlink:href="#f1umwKOuk5" opacity="1" fill="#2b1e55" fill-opacity="1"></use><g><use xlink:href="#f1umwKOuk5" opacity="1" fill-opacity="0" stroke="#000000" stroke-width="1" stroke-opacity="0"></use></g></g><g><use xlink:href="#a2BhvG87Dh" opacity="1" fill="#2b1e55" fill-opacity="1"></use><g><use xlink:href="#a2BhvG87Dh" opacity="1" fill-opacity="0" stroke="#000000" stroke-width="1" stroke-opacity="0"></use></g></g><g><use xlink:href="#eeJBs9yeX" opacity="1" fill="#8162e4" fill-opacity="1"></use><g><use xlink:href="#eeJBs9yeX" opacity="1" fill-opacity="0" stroke="#000000" stroke-width="1" stroke-opacity="0"></use></g></g><g><use xlink:href="#d5NpYTJ6QQ" opacity="1" fill="#8162e4" fill-opacity="1"></use><g><use xlink:href="#d5NpYTJ6QQ" opacity="1" fill-opacity="0" stroke="#000000" stroke-width="1" stroke-opacity="0"></use></g></g><g><use xlink:href="#ebKFhPNEf5" opacity="1" fill="#8162e4" fill-opacity="1"></use><g><use xlink:href="#ebKFhPNEf5" opacity="1" fill-opacity="0" stroke="#000000" stroke-width="1" stroke-opacity="0"></use></g></g><g><use xlink:href="#bz44oXIpf" opacity="1" fill="#2b1e55" fill-opacity="1"></use><g><use xlink:href="#bz44oXIpf" opacity="1" fill-opacity="0" stroke="#000000" stroke-width="1" stroke-opacity="0"></use></g></g></g></g></svg>