<?xml version="1.0"?>
<svg xmlns="http://www.w3.org/2000/svg" height="512px" viewBox="0 0 496 496.09144" width="512px" class=""><g><g><path d="m120.046875 240.089844h80v48h-80zm0 0" fill="#57a4ff" data-original="#8162E4" class="" style="fill:#8162E4" data-old_color="#57a4ff"/><path d="m200.046875 240.089844h88v48h-88zm0 0" fill="#57a4ff" data-original="#8162E4" class="" style="fill:#8162E4" data-old_color="#57a4ff"/><path d="m288.046875 240.089844h88v48h-88zm0 0" fill="#57a4ff" data-original="#8162E4" class="" style="fill:#8162E4" data-old_color="#57a4ff"/><path d="m352.046875 352.089844v-32h-208v32zm0 0" fill="#57a4ff" data-original="#8162E4" class="" style="fill:#8162E4" data-old_color="#57a4ff"/><path d="m248.046875 184.089844c48.601563 0 88-39.398438 88-88 0-48.597656-39.398437-88-88-88s-88 39.402344-88 88c0 48.601562 39.398437 88 88 88zm-22.503906-109.535156c1.226562-11.253907 11.226562-19.457032 22.503906-18.464844 12.421875 0 24 7.648437 24 17.847656 0-10.199219-11.578125-17.847656-24-17.847656-11.277344-.992188-21.277344 7.210937-22.503906 18.464844 0 22.816406 45 19.738281 45 43.074218-1.230469 11.246094-11.222657 19.453125-22.496094 18.460938-12.425781 0-24-7.644532-24-17.847656 0 10.203124 11.574219 17.847656 24 17.847656 11.273437.992187 21.265625-7.214844 22.496094-18.460938 0-23.335937-45-20.257812-45-43.074218zm-36.824219-2.464844c-1.054688 2.609375-1.941406 5.28125-2.648438 8 .707032-2.71875 1.59375-5.390625 2.648438-8zm28.335938 80c-17.863282-9.90625-29.9375-27.734375-32.511719-48 2.574219 20.265625 14.648437 38.09375 32.511719 48zm0 0" fill="#57a4ff" data-original="#8162E4" class="" style="fill:#8162E4" data-old_color="#57a4ff"/><g fill="#004fac"><path d="m488.046875 216.089844c4.417969 0 8-3.582032 8-8v-112c0-4.417969-3.582031-8-8-8h-144.410156c-4.074219-49.773438-45.660157-88.089844-95.597657-88.089844-49.941406 0-91.527343 38.316406-95.601562 88.089844h-144.390625c-4.417969 0-8 3.582031-8 8v112c0 4.417968 3.582031 8 8 8h40v264h-40c-4.417969 0-8 3.582031-8 8 0 4.417968 3.582031 8 8 8h480c4.417969 0 8-3.582032 8-8 0-4.417969-3.582031-8-8-8h-40v-264zm-240-200c44.179687 0 80 35.820312 80 80 0 44.183594-35.820313 80-80 80-44.183594 0-80-35.816406-80-80 .046875-44.160156 35.835937-79.949219 80-80zm-232 88h136.40625c4.078125 49.773437 45.660156 88.09375 95.601563 88.09375 49.9375 0 91.523437-38.320313 95.597656-88.09375h136.394531v96h-464zm136 240v-16h192v16zm176 16v120h-160v-120zm104 120h-88v-120h8c4.417969 0 8-3.582032 8-8v-32c0-4.417969-3.582031-8-8-8h-208c-4.417969 0-8 3.582031-8 8v32c0 4.417968 3.582031 8 8 8h8v120h-88v-264h368zm0 0" data-original="#2B1E55" class="active-path" style="fill:#2B1E55" data-old_color="#004FAC"/><path d="m120.046875 296.089844h256c4.417969 0 8-3.582032 8-8v-48c0-4.417969-3.582031-8-8-8h-256c-4.417969 0-8 3.582031-8 8v48c0 4.417968 3.582031 8 8 8zm88-16v-32h72v32zm160 0h-72v-32h72zm-240-32h64v32h-64zm0 0" data-original="#2B1E55" class="active-path" style="fill:#2B1E55" data-old_color="#004FAC"/><path d="m248.046875 128.089844c-8.226563 0-16-4.796875-16-9.839844 0-4.417969-3.582031-8-8-8s-8 3.582031-8 8c1.132813 12.921875 11.128906 23.300781 24 24.921875v8.917969c0 4.417968 3.582031 8 8 8s8-3.582032 8-8v-9.039063c12.484375-2.238281 21.792969-12.761719 22.496094-25.421875 0-16.9375-15.203125-23.707031-27.441407-29.128906-10.917968-4.863281-17.558593-8.222656-17.558593-13.945312 0-5.71875 6.648437-10.464844 14.503906-10.464844 8.222656 0 16 4.800781 16 9.839844 0 4.421874 3.582031 8 8 8s8-3.578126 8-8c-1.136719-12.917969-11.132813-23.300782-24-24.917969v-8.921875c0-4.417969-3.582031-8-8-8s-8 3.582031-8 8v9.042968c-12.488281 2.238282-21.800781 12.757813-22.503906 25.421876 0 16.535156 15.007812 23.199218 27.0625 28.5625 11.199219 4.957031 17.9375 8.414062 17.9375 14.511718 0 5.664063-6.640625 10.460938-14.496094 10.460938zm0 0" data-original="#2B1E55" class="active-path" style="fill:#2B1E55" data-old_color="#004FAC"/><path d="m184.046875 87.835938c.65625.171874 1.328125.257812 2.007813.253906 3.644531 0 6.828124-2.460938 7.742187-5.992188.621094-2.382812 1.398437-4.726562 2.320313-7.015625 1.621093-4.085937-.359376-8.714843-4.4375-10.363281-4.074219-1.648438-8.71875.300781-10.394532 4.363281-1.1875 2.933594-2.179687 5.941407-2.976562 9-1.109375 4.277344 1.460937 8.644531 5.738281 9.753907zm0 0" data-original="#2B1E55" class="active-path" style="fill:#2B1E55" data-old_color="#004FAC"/><path d="m213.171875 159.066406c1.183594.664063 2.519531 1.011719 3.875 1.007813 3.644531.003906 6.832031-2.457031 7.75-5.988281.917969-3.527344-.667969-7.230469-3.855469-9.003907-15.617187-8.683593-26.179687-24.269531-28.464844-41.992187-.640624-4.296875-4.59375-7.296875-8.902343-6.757813-4.3125.539063-7.40625 4.421875-6.96875 8.742188 2.917969 22.785156 16.492187 42.828125 36.566406 53.992187zm0 0" data-original="#2B1E55" class="active-path" style="fill:#2B1E55" data-old_color="#004FAC"/><path d="m160.046875 352.089844h176v136h-176zm0 0" data-original="#2B1E55" class="active-path" style="fill:#2B1E55" data-old_color="#004FAC"/></g></g></g> </svg>
