<?xml version="1.0" encoding="UTF-8" standalone="no"?>
<!DOCTYPE svg PUBLIC "-//W3C//DTD SVG 1.1//EN" "http://www.w3.org/Graphics/SVG/1.1/DTD/svg11.dtd">
<svg version="1.1" xmlns="http://www.w3.org/2000/svg" xmlns:xlink="http://www.w3.org/1999/xlink" preserveAspectRatio="xMidYMid meet" viewBox="0 0 400 400" width="400" height="400"><defs><path d="M371.6 128.32L24.97 128.32C24.97 114.45 24.97 106.75 24.97 105.21C24.97 92.45 35.32 82.1 48.08 82.1C48.85 82.1 52.7 82.1 59.64 82.1L59.64 99.43L82.75 99.43L82.75 82.1L313.83 82.1L313.83 99.43L336.94 99.43L336.94 82.1C343.87 82.1 347.73 82.1 348.5 82.1C361.26 82.1 371.6 92.45 371.6 105.21C371.6 108.29 371.6 115.99 371.6 128.32Z" id="aMWrzsFGY"></path><path d="M59.64 295.86C53.26 295.86 48.08 301.03 48.08 307.41C48.08 313.79 53.26 318.97 59.64 318.97C66.02 318.97 71.19 313.79 71.19 307.41C71.19 301.03 66.02 295.86 59.64 295.86Z" id="aq7k3JRxo"></path><path d="M59.64 249.64C53.26 249.64 48.08 254.81 48.08 261.19C48.08 267.58 53.26 272.75 59.64 272.75C66.02 272.75 71.19 267.58 71.19 261.19C71.19 254.81 66.02 249.64 59.64 249.64Z" id="cuG53AMdC"></path><path d="M59.64 203.42C53.26 203.42 48.08 208.6 48.08 214.98C48.08 221.36 53.26 226.53 59.64 226.53C66.02 226.53 71.19 221.36 71.19 214.98C71.19 208.6 66.02 203.42 59.64 203.42Z" id="a2cSiR3lKM"></path><path d="M59.64 157.2C53.26 157.2 48.08 162.38 48.08 168.76C48.08 175.14 53.26 180.31 59.64 180.31C66.02 180.31 71.19 175.14 71.19 168.76C71.19 162.38 66.02 157.2 59.64 157.2Z" id="b4wqHwaTuo"></path><path d="M105.85 295.86C99.47 295.86 94.3 301.03 94.3 307.41C94.3 313.79 99.47 318.97 105.85 318.97C112.24 318.97 117.41 313.79 117.41 307.41C117.41 301.03 112.24 295.86 105.85 295.86Z" id="b4K51ZLhzf"></path><path d="M105.85 249.64C99.47 249.64 94.3 254.81 94.3 261.19C94.3 267.58 99.47 272.75 105.85 272.75C112.24 272.75 117.41 267.58 117.41 261.19C117.41 254.81 112.24 249.64 105.85 249.64Z" id="ctfvOoZhZ"></path><path d="M105.85 203.42C99.47 203.42 94.3 208.6 94.3 214.98C94.3 221.36 99.47 226.53 105.85 226.53C112.24 226.53 117.41 221.36 117.41 214.98C117.41 208.6 112.24 203.42 105.85 203.42Z" id="a4chLreKS"></path><path d="M105.85 157.2C99.47 157.2 94.3 162.38 94.3 168.76C94.3 175.14 99.47 180.31 105.85 180.31C112.24 180.31 117.41 175.14 117.41 168.76C117.41 162.38 112.24 157.2 105.85 157.2Z" id="c76EnT4KR"></path><path d="M152.07 295.86C145.69 295.86 140.52 301.03 140.52 307.41C140.52 313.79 145.69 318.97 152.07 318.97C158.45 318.97 163.63 313.79 163.63 307.41C163.63 301.03 158.45 295.86 152.07 295.86Z" id="a1ALmaWSbi"></path><path d="M152.07 249.64C145.69 249.64 140.52 254.81 140.52 261.19C140.52 267.58 145.69 272.75 152.07 272.75C158.45 272.75 163.63 267.58 163.63 261.19C163.63 254.81 158.45 249.64 152.07 249.64Z" id="b1UYOonego"></path><path d="M152.07 203.42C145.69 203.42 140.52 208.6 140.52 214.98C140.52 221.36 145.69 226.53 152.07 226.53C158.45 226.53 163.63 221.36 163.63 214.98C163.63 208.6 158.45 203.42 152.07 203.42Z" id="c1X6WC4YZM"></path><path d="M152.07 157.2C145.69 157.2 140.52 162.38 140.52 168.76C140.52 175.14 145.69 180.31 152.07 180.31C158.45 180.31 163.63 175.14 163.63 168.76C163.63 162.38 158.45 157.2 152.07 157.2Z" id="bbJHRjYvX"></path><path d="M198.29 295.86C191.91 295.86 186.73 301.03 186.73 307.41C186.73 313.79 191.91 318.97 198.29 318.97C204.67 318.97 209.84 313.79 209.84 307.41C209.84 301.03 204.67 295.86 198.29 295.86Z" id="c3fgP3LNy"></path><path d="M198.29 249.64C191.91 249.64 186.73 254.81 186.73 261.19C186.73 267.58 191.91 272.75 198.29 272.75C204.67 272.75 209.84 267.58 209.84 261.19C209.84 254.81 204.67 249.64 198.29 249.64Z" id="f2ryBeAi9z"></path><path d="M198.29 203.42C191.91 203.42 186.73 208.6 186.73 214.98C186.73 221.36 191.91 226.53 198.29 226.53C204.67 226.53 209.84 221.36 209.84 214.98C209.84 208.6 204.67 203.42 198.29 203.42Z" id="auU5yfEFh"></path><path d="M198.29 157.2C191.91 157.2 186.73 162.38 186.73 168.76C186.73 175.14 191.91 180.31 198.29 180.31C204.67 180.31 209.84 175.14 209.84 168.76C209.84 162.38 204.67 157.2 198.29 157.2Z" id="d1G45hC3Cr"></path><path d="M244.51 203.42C238.12 203.42 232.95 208.6 232.95 214.98C232.95 221.36 238.12 226.53 244.51 226.53C250.89 226.53 256.06 221.36 256.06 214.98C256.06 208.6 250.89 203.42 244.51 203.42Z" id="kzLkAP1Co"></path><path d="M244.51 157.2C238.12 157.2 232.95 162.38 232.95 168.76C232.95 175.14 238.12 180.31 244.51 180.31C250.89 180.31 256.06 175.14 256.06 168.76C256.06 162.38 250.89 157.2 244.51 157.2Z" id="b7LZ9FOYX"></path><path d="M290.72 203.42C284.34 203.42 279.17 208.6 279.17 214.98C279.17 221.36 284.34 226.53 290.72 226.53C297.1 226.53 302.28 221.36 302.28 214.98C302.28 208.6 297.1 203.42 290.72 203.42Z" id="e37lOUtc4"></path><path d="M290.72 157.2C284.34 157.2 279.17 162.38 279.17 168.76C279.17 175.14 284.34 180.31 290.72 180.31C297.1 180.31 302.28 175.14 302.28 168.76C302.28 162.38 297.1 157.2 290.72 157.2Z" id="b6pvT3lqqF"></path><path d="M336.94 203.42C330.56 203.42 325.39 208.6 325.39 214.98C325.39 221.36 330.56 226.53 336.94 226.53C343.32 226.53 348.5 221.36 348.5 214.98C348.5 208.6 343.32 203.42 336.94 203.42Z" id="g7Ga1uM0YQ"></path><path d="M336.94 157.2C330.56 157.2 325.39 162.38 325.39 168.76C325.39 175.14 330.56 180.31 336.94 180.31C343.32 180.31 348.5 175.14 348.5 168.76C348.5 162.38 343.32 157.2 336.94 157.2Z" id="f2FzjgmPxj"></path><path d="M198.29 157.2C191.91 157.2 186.73 162.38 186.73 168.76C186.73 175.14 191.91 180.31 198.29 180.31C204.67 180.31 209.84 175.14 209.84 168.76C209.84 162.38 204.67 157.2 198.29 157.2Z" id="l3DwWsIv3Q"></path><path d="M152.07 157.2C145.69 157.2 140.52 162.38 140.52 168.76C140.52 175.14 145.69 180.31 152.07 180.31C158.45 180.31 163.63 175.14 163.63 168.76C163.63 162.38 158.45 157.2 152.07 157.2Z" id="a6oGu1liN"></path><path d="M105.85 157.2C99.47 157.2 94.3 162.38 94.3 168.76C94.3 175.14 99.47 180.31 105.85 180.31C112.24 180.31 117.41 175.14 117.41 168.76C117.41 162.38 112.24 157.2 105.85 157.2Z" id="h1863sP42"></path><path d="M59.64 157.2C53.26 157.2 48.08 162.38 48.08 168.76C48.08 175.14 53.26 180.31 59.64 180.31C66.02 180.31 71.19 175.14 71.19 168.76C71.19 162.38 66.02 157.2 59.64 157.2Z" id="bMxVyPxRP"></path><path d="M336.94 157.2C330.56 157.2 325.39 162.38 325.39 168.76C325.39 175.14 330.56 180.31 336.94 180.31C343.32 180.31 348.5 175.14 348.5 168.76C348.5 162.38 343.32 157.2 336.94 157.2Z" id="asofBE1ot"></path><path d="M290.72 157.2C284.34 157.2 279.17 162.38 279.17 168.76C279.17 175.14 284.34 180.31 290.72 180.31C297.1 180.31 302.28 175.14 302.28 168.76C302.28 162.38 297.1 157.2 290.72 157.2Z" id="c1cUJiMsX"></path><path d="M244.51 157.2C238.12 157.2 232.95 162.38 232.95 168.76C232.95 175.14 238.12 180.31 244.51 180.31C250.89 180.31 256.06 175.14 256.06 168.76C256.06 162.38 250.89 157.2 244.51 157.2Z" id="aXIqiCX6o"></path><path d="M198.29 203.42C191.91 203.42 186.73 208.6 186.73 214.98C186.73 221.36 191.91 226.53 198.29 226.53C204.67 226.53 209.84 221.36 209.84 214.98C209.84 208.6 204.67 203.42 198.29 203.42Z" id="cIQrEJwlR"></path><path d="M152.07 203.42C145.69 203.42 140.52 208.6 140.52 214.98C140.52 221.36 145.69 226.53 152.07 226.53C158.45 226.53 163.63 221.36 163.63 214.98C163.63 208.6 158.45 203.42 152.07 203.42Z" id="guKGBPNNV"></path><path d="M105.85 203.42C99.47 203.42 94.3 208.6 94.3 214.98C94.3 221.36 99.47 226.53 105.85 226.53C112.24 226.53 117.41 221.36 117.41 214.98C117.41 208.6 112.24 203.42 105.85 203.42Z" id="cvOiKp6Kb"></path><path d="M59.64 203.42C53.26 203.42 48.08 208.6 48.08 214.98C48.08 221.36 53.26 226.53 59.64 226.53C66.02 226.53 71.19 221.36 71.19 214.98C71.19 208.6 66.02 203.42 59.64 203.42Z" id="a3Ki5sY5SP"></path><path d="M336.94 203.42C330.56 203.42 325.39 208.6 325.39 214.98C325.39 221.36 330.56 226.53 336.94 226.53C343.32 226.53 348.5 221.36 348.5 214.98C348.5 208.6 343.32 203.42 336.94 203.42Z" id="a1dWaZGhph"></path><path d="M290.72 203.42C284.34 203.42 279.17 208.6 279.17 214.98C279.17 221.36 284.34 226.53 290.72 226.53C297.1 226.53 302.28 221.36 302.28 214.98C302.28 208.6 297.1 203.42 290.72 203.42Z" id="a3aVXJZ9Ov"></path><path d="M244.51 203.42C238.12 203.42 232.95 208.6 232.95 214.98C232.95 221.36 238.12 226.53 244.51 226.53C250.89 226.53 256.06 221.36 256.06 214.98C256.06 208.6 250.89 203.42 244.51 203.42Z" id="axo2q6z4w"></path><path d="M198.29 249.64C191.91 249.64 186.73 254.81 186.73 261.19C186.73 267.58 191.91 272.75 198.29 272.75C204.67 272.75 209.84 267.58 209.84 261.19C209.84 254.81 204.67 249.64 198.29 249.64Z" id="c10jr9QY62"></path><path d="M152.07 249.64C145.69 249.64 140.52 254.81 140.52 261.19C140.52 267.58 145.69 272.75 152.07 272.75C158.45 272.75 163.63 267.58 163.63 261.19C163.63 254.81 158.45 249.64 152.07 249.64Z" id="aqytoIFVj"></path><path d="M105.85 249.64C99.47 249.64 94.3 254.81 94.3 261.19C94.3 267.58 99.47 272.75 105.85 272.75C112.24 272.75 117.41 267.58 117.41 261.19C117.41 254.81 112.24 249.64 105.85 249.64Z" id="f3AZNUaLFc"></path><path d="M59.64 249.64C53.26 249.64 48.08 254.81 48.08 261.19C48.08 267.58 53.26 272.75 59.64 272.75C66.02 272.75 71.19 267.58 71.19 261.19C71.19 254.81 66.02 249.64 59.64 249.64Z" id="b7HfSX87zP"></path><path d="M198.29 295.86C191.91 295.86 186.73 301.03 186.73 307.41C186.73 313.79 191.91 318.97 198.29 318.97C204.67 318.97 209.84 313.79 209.84 307.41C209.84 301.03 204.67 295.86 198.29 295.86Z" id="b4Ad0kInSQ"></path><path d="M152.07 295.86C145.69 295.86 140.52 301.03 140.52 307.41C140.52 313.79 145.69 318.97 152.07 318.97C158.45 318.97 163.63 313.79 163.63 307.41C163.63 301.03 158.45 295.86 152.07 295.86Z" id="a3Rl0DWpd3"></path><path d="M105.85 295.86C99.47 295.86 94.3 301.03 94.3 307.41C94.3 313.79 99.47 318.97 105.85 318.97C112.24 318.97 117.41 313.79 117.41 307.41C117.41 301.03 112.24 295.86 105.85 295.86Z" id="cZAc0vRCA"></path><path d="M59.64 295.86C53.26 295.86 48.08 301.03 48.08 307.41C48.08 313.79 53.26 318.97 59.64 318.97C66.02 318.97 71.19 313.79 71.19 307.41C71.19 301.03 66.02 295.86 59.64 295.86Z" id="h38Gl2AJPa"></path><path d="M290.72 365.18C258.82 365.18 232.95 339.32 232.95 307.41C232.95 275.5 258.82 249.64 290.72 249.64C322.54 249.55 348.41 275.27 348.5 307.08C348.5 307.19 348.5 307.3 348.5 307.41C348.5 339.32 322.63 365.18 290.72 365.18Z" id="cDWFlGT7K"></path><path d="M342.72 76.32C342.72 69.39 342.72 65.54 342.72 64.77C342.72 61.58 340.13 58.99 336.94 58.99C334.63 58.99 316.14 58.99 313.83 58.99C310.64 58.99 308.06 61.58 308.06 64.77C308.06 65.54 308.06 69.39 308.06 76.32L88.52 76.32C88.52 69.39 88.52 65.54 88.52 64.77C88.52 61.58 85.94 58.99 82.75 58.99C80.43 58.99 61.95 58.99 59.64 58.99C56.45 58.99 53.86 61.58 53.86 64.77C53.86 65.54 53.86 69.39 53.86 76.32C50.39 76.32 48.47 76.32 48.08 76.32C32.14 76.34 19.21 89.26 19.2 105.21C19.2 127.16 19.2 302.79 19.2 324.74C19.21 340.69 32.14 353.61 48.08 353.63C67.99 353.63 227.25 353.63 247.15 353.63C271.6 376.74 309.84 376.74 334.29 353.63C335.71 353.63 347.08 353.63 348.5 353.63C364.44 353.61 377.36 340.69 377.38 324.74C377.38 302.79 377.38 127.16 377.38 105.21C377.36 89.26 364.44 76.34 348.5 76.32C348.5 76.32 346.57 76.32 342.72 76.32ZM319.61 70.55L331.16 70.55L331.16 93.66L319.61 93.66L319.61 70.55ZM65.41 70.55L76.97 70.55L76.97 93.66L65.41 93.66L65.41 70.55ZM30.75 105.21C30.76 95.64 38.51 87.89 48.08 87.88C48.47 87.88 50.39 87.88 53.86 87.88C53.86 94.81 53.86 98.66 53.86 99.43C53.86 102.62 56.45 105.21 59.64 105.21C61.95 105.21 80.43 105.21 82.75 105.21C85.94 105.21 88.52 102.62 88.52 99.43C88.52 98.66 88.52 94.81 88.52 87.88L308.06 87.88C308.06 94.81 308.06 98.66 308.06 99.43C308.06 102.62 310.64 105.21 313.83 105.21C316.14 105.21 334.63 105.21 336.94 105.21C340.13 105.21 342.72 102.62 342.72 99.43C342.72 98.66 342.72 94.81 342.72 87.88C346.18 87.88 348.11 87.88 348.5 87.88C358.06 87.89 365.82 95.64 365.83 105.21C365.83 106.37 365.83 112.14 365.83 122.54L30.75 122.54C30.75 113.3 30.75 107.52 30.75 105.21ZM290.72 255.42C319.44 255.42 342.72 278.7 342.72 307.41C342.72 336.13 319.44 359.41 290.72 359.41C262.02 359.37 238.76 336.11 238.73 307.41C238.73 278.7 262.01 255.42 290.72 255.42ZM365.83 324.74C365.82 334.31 358.06 342.06 348.5 342.07C348.04 342.07 344.41 342.07 343.96 342.07C363.13 312.67 354.83 273.3 325.43 254.13C296.03 234.97 256.65 243.27 237.49 272.67C223.74 293.76 223.74 320.98 237.49 342.07C218.55 342.07 67.02 342.07 48.08 342.07C38.51 342.06 30.76 334.31 30.75 324.74C30.75 312.03 30.75 248.48 30.75 134.1L365.83 134.1C365.83 235.77 365.83 299.32 365.83 324.74Z" id="c3TgX7Vw0G"></path><path d="M215.62 168.76C215.62 159.19 207.86 151.43 198.29 151.43C188.72 151.43 180.96 159.19 180.96 168.76C180.97 178.33 188.72 186.08 198.29 186.09C207.86 186.09 215.62 178.33 215.62 168.76ZM204.07 168.76C204.07 171.95 201.48 174.54 198.29 174.54C195.1 174.54 192.51 171.95 192.51 168.76C192.52 165.57 195.1 162.99 198.29 162.98C201.48 162.98 204.07 165.57 204.07 168.76Z" id="a8hvBL5U"></path><path d="M169.4 168.76C169.4 159.19 161.64 151.43 152.07 151.43C142.5 151.43 134.74 159.19 134.74 168.76C134.75 178.33 142.5 186.08 152.07 186.09C161.64 186.09 169.4 178.33 169.4 168.76ZM157.85 168.76C157.85 171.95 155.26 174.54 152.07 174.54C148.88 174.54 146.29 171.95 146.29 168.76C146.3 165.57 148.88 162.99 152.07 162.98C155.26 162.98 157.85 165.57 157.85 168.76Z" id="a3ZkNrGSOR"></path><path d="M123.19 168.76C123.19 159.19 115.43 151.43 105.85 151.43C96.28 151.43 88.52 159.19 88.52 168.76C88.53 178.33 96.29 186.08 105.85 186.09C115.43 186.09 123.19 178.33 123.19 168.76ZM111.63 168.76C111.63 171.95 109.04 174.54 105.85 174.54C102.66 174.54 100.08 171.95 100.08 168.76C100.08 165.57 102.66 162.99 105.85 162.98C109.04 162.98 111.63 165.57 111.63 168.76Z" id="a18HO9KSs4"></path><path d="M76.97 168.76C76.97 159.19 69.21 151.43 59.64 151.43C50.06 151.43 42.31 159.19 42.31 168.76C42.32 178.33 50.07 186.08 59.64 186.09C69.21 186.09 76.97 178.33 76.97 168.76ZM65.41 168.76C65.41 171.95 62.83 174.54 59.64 174.54C56.45 174.54 53.86 171.95 53.86 168.76C53.86 165.57 56.45 162.99 59.64 162.98C62.83 162.98 65.41 165.57 65.41 168.76Z" id="h12xvpfHER"></path><path d="M354.27 168.76C354.27 159.19 346.51 151.43 336.94 151.43C327.37 151.43 319.61 159.19 319.61 168.76C319.62 178.33 327.37 186.08 336.94 186.09C346.51 186.09 354.27 178.33 354.27 168.76ZM342.72 168.76C342.72 171.95 340.13 174.54 336.94 174.54C333.75 174.54 331.16 171.95 331.16 168.76C331.17 165.57 333.75 162.99 336.94 162.98C340.13 162.98 342.72 165.57 342.72 168.76Z" id="aG3Ao7Hr"></path><path d="M308.06 168.76C308.06 159.19 300.3 151.43 290.72 151.43C281.15 151.43 273.39 159.19 273.39 168.76C273.4 178.33 281.16 186.08 290.72 186.09C300.3 186.09 308.06 178.33 308.06 168.76ZM296.5 168.76C296.5 171.95 293.91 174.54 290.72 174.54C287.53 174.54 284.95 171.95 284.95 168.76C284.95 165.57 287.53 162.99 290.72 162.98C293.91 162.98 296.5 165.57 296.5 168.76Z" id="jRNM6Aak3"></path><path d="M261.84 168.76C261.84 159.19 254.08 151.43 244.51 151.43C234.93 151.43 227.17 159.19 227.17 168.76C227.19 178.33 234.94 186.08 244.51 186.09C254.08 186.09 261.84 178.33 261.84 168.76ZM250.28 168.76C250.28 171.95 247.7 174.54 244.51 174.54C241.32 174.54 238.73 171.95 238.73 168.76C238.73 165.57 241.32 162.99 244.51 162.98C247.7 162.98 250.28 165.57 250.28 168.76Z" id="h1lwm5deJ"></path><path d="M215.62 214.98C215.62 205.4 207.86 197.65 198.29 197.65C188.72 197.65 180.96 205.4 180.96 214.98C180.97 224.54 188.72 232.3 198.29 232.31C207.86 232.31 215.62 224.55 215.62 214.98ZM204.07 214.98C204.07 218.17 201.48 220.75 198.29 220.75C195.1 220.75 192.51 218.17 192.51 214.98C192.52 211.79 195.1 209.2 198.29 209.2C201.48 209.2 204.07 211.79 204.07 214.98Z" id="a1MIZrw2pb"></path><path d="M169.4 214.98C169.4 205.4 161.64 197.65 152.07 197.65C142.5 197.65 134.74 205.4 134.74 214.98C134.75 224.54 142.5 232.3 152.07 232.31C161.64 232.31 169.4 224.55 169.4 214.98ZM157.85 214.98C157.85 218.17 155.26 220.75 152.07 220.75C148.88 220.75 146.29 218.17 146.29 214.98C146.3 211.79 148.88 209.2 152.07 209.2C155.26 209.2 157.85 211.79 157.85 214.98Z" id="dq6Ppybjl"></path><path d="M123.19 214.98C123.19 205.4 115.43 197.65 105.85 197.65C96.28 197.65 88.52 205.4 88.52 214.98C88.53 224.54 96.29 232.3 105.85 232.31C115.43 232.31 123.19 224.55 123.19 214.98ZM111.63 214.98C111.63 218.17 109.04 220.75 105.85 220.75C102.66 220.75 100.08 218.17 100.08 214.98C100.08 211.79 102.66 209.2 105.85 209.2C109.04 209.2 111.63 211.79 111.63 214.98Z" id="a23LsEDUWx"></path><path d="M76.97 214.98C76.97 205.4 69.21 197.65 59.64 197.65C50.06 197.65 42.31 205.4 42.31 214.98C42.32 224.54 50.07 232.3 59.64 232.31C69.21 232.31 76.97 224.55 76.97 214.98ZM65.41 214.98C65.41 218.17 62.83 220.75 59.64 220.75C56.45 220.75 53.86 218.17 53.86 214.98C53.86 211.79 56.45 209.2 59.64 209.2C62.83 209.2 65.41 211.79 65.41 214.98Z" id="a3m5Q0sNAF"></path><path d="M354.27 214.98C354.27 205.4 346.51 197.65 336.94 197.65C327.37 197.65 319.61 205.4 319.61 214.98C319.62 224.54 327.37 232.3 336.94 232.31C346.51 232.31 354.27 224.55 354.27 214.98ZM342.72 214.98C342.72 218.17 340.13 220.75 336.94 220.75C333.75 220.75 331.16 218.17 331.16 214.98C331.17 211.79 333.75 209.2 336.94 209.2C340.13 209.2 342.72 211.79 342.72 214.98Z" id="e9mpb9YzS"></path><path d="M308.06 214.98C308.06 205.4 300.3 197.65 290.72 197.65C281.15 197.65 273.39 205.4 273.39 214.98C273.4 224.54 281.16 232.3 290.72 232.31C300.3 232.31 308.06 224.55 308.06 214.98ZM296.5 214.98C296.5 218.17 293.91 220.75 290.72 220.75C287.53 220.75 284.95 218.17 284.95 214.98C284.95 211.79 287.53 209.2 290.72 209.2C293.91 209.2 296.5 211.79 296.5 214.98Z" id="asHc3dKBJ"></path><path d="M261.84 214.98C261.84 205.4 254.08 197.65 244.51 197.65C234.93 197.65 227.17 205.4 227.17 214.98C227.19 224.54 234.94 232.3 244.51 232.31C254.08 232.31 261.84 224.55 261.84 214.98ZM250.28 214.98C250.28 218.17 247.7 220.75 244.51 220.75C241.32 220.75 238.73 218.17 238.73 214.98C238.73 211.79 241.32 209.2 244.51 209.2C247.7 209.2 250.28 211.79 250.28 214.98Z" id="anBPwP0un"></path><path d="M215.62 261.19C215.62 251.62 207.86 243.86 198.29 243.86C188.72 243.86 180.96 251.62 180.96 261.19C180.97 270.76 188.72 278.51 198.29 278.53C207.86 278.53 215.62 270.77 215.62 261.19ZM204.07 261.19C204.07 264.38 201.48 266.97 198.29 266.97C195.1 266.97 192.51 264.38 192.51 261.19C192.52 258 195.1 255.42 198.29 255.42C201.48 255.42 204.07 258 204.07 261.19Z" id="i6EkubmDb"></path><path d="M169.4 261.19C169.4 251.62 161.64 243.86 152.07 243.86C142.5 243.86 134.74 251.62 134.74 261.19C134.75 270.76 142.5 278.51 152.07 278.53C161.64 278.53 169.4 270.77 169.4 261.19ZM157.85 261.19C157.85 264.38 155.26 266.97 152.07 266.97C148.88 266.97 146.29 264.38 146.29 261.19C146.3 258 148.88 255.42 152.07 255.42C155.26 255.42 157.85 258 157.85 261.19Z" id="dGQlwyHzF"></path><path d="M123.19 261.19C123.19 251.62 115.43 243.86 105.85 243.86C96.28 243.86 88.52 251.62 88.52 261.19C88.53 270.76 96.29 278.51 105.85 278.53C115.43 278.53 123.19 270.77 123.19 261.19ZM111.63 261.19C111.63 264.38 109.04 266.97 105.85 266.97C102.66 266.97 100.08 264.38 100.08 261.19C100.08 258 102.66 255.42 105.85 255.42C109.04 255.42 111.63 258 111.63 261.19Z" id="c1qSN970uU"></path><path d="M76.97 261.19C76.97 251.62 69.21 243.86 59.64 243.86C50.06 243.86 42.31 251.62 42.31 261.19C42.32 270.76 50.07 278.51 59.64 278.53C69.21 278.53 76.97 270.77 76.97 261.19ZM65.41 261.19C65.41 264.38 62.83 266.97 59.64 266.97C56.45 266.97 53.86 264.38 53.86 261.19C53.86 258 56.45 255.42 59.64 255.42C62.83 255.42 65.41 258 65.41 261.19Z" id="c1gd7SlclF"></path><path d="M215.62 307.41C215.62 297.84 207.86 290.08 198.29 290.08C188.72 290.08 180.96 297.84 180.96 307.41C180.97 316.98 188.72 324.73 198.29 324.74C207.86 324.74 215.62 316.98 215.62 307.41ZM204.07 307.41C204.07 310.6 201.48 313.19 198.29 313.19C195.1 313.19 192.51 310.6 192.51 307.41C192.52 304.22 195.1 301.64 198.29 301.63C201.48 301.63 204.07 304.22 204.07 307.41Z" id="b58VXR0zKr"></path><path d="M169.4 307.41C169.4 297.84 161.64 290.08 152.07 290.08C142.5 290.08 134.74 297.84 134.74 307.41C134.75 316.98 142.5 324.73 152.07 324.74C161.64 324.74 169.4 316.98 169.4 307.41ZM157.85 307.41C157.85 310.6 155.26 313.19 152.07 313.19C148.88 313.19 146.29 310.6 146.29 307.41C146.3 304.22 148.88 301.64 152.07 301.63C155.26 301.63 157.85 304.22 157.85 307.41Z" id="aD8EtdprG"></path><path d="M123.19 307.41C123.19 297.84 115.43 290.08 105.85 290.08C96.28 290.08 88.52 297.84 88.52 307.41C88.53 316.98 96.29 324.73 105.85 324.74C115.43 324.74 123.19 316.98 123.19 307.41ZM111.63 307.41C111.63 310.6 109.04 313.19 105.85 313.19C102.66 313.19 100.08 310.6 100.08 307.41C100.08 304.22 102.66 301.64 105.85 301.63C109.04 301.63 111.63 304.22 111.63 307.41Z" id="b1tmoZF45z"></path><path d="M76.97 307.41C76.97 297.84 69.21 290.08 59.64 290.08C50.06 290.08 42.31 297.84 42.31 307.41C42.32 316.98 50.07 324.73 59.64 324.74C69.21 324.74 76.97 316.98 76.97 307.41ZM65.41 307.41C65.41 310.6 62.83 313.19 59.64 313.19C56.45 313.19 53.86 310.6 53.86 307.41C53.86 304.22 56.45 301.64 59.64 301.63C62.83 301.63 65.41 304.22 65.41 307.41Z" id="c20BPs7Q37"></path><path d="M321.58 285.73C321.58 285.73 321.58 285.73 321.58 285.73C318.77 288.19 304.72 300.48 279.43 322.61C271.33 314.51 266.82 310 265.92 309.1C263.67 306.85 260.01 306.85 257.75 309.1C255.5 311.36 255.5 315.02 257.75 317.27C259.49 319.01 273.35 332.87 275.08 334.61C277.23 336.76 280.68 336.87 282.97 334.87C287.6 330.82 324.57 298.47 329.19 294.43C331.59 292.33 331.84 288.68 329.74 286.28C329.73 286.28 329.73 286.28 329.73 286.28C327.63 283.87 323.98 283.63 321.58 285.73Z" id="hlUXWpose"></path></defs><g><g><g><use xlink:href="#aMWrzsFGY" opacity="1" fill="#8162e4" fill-opacity="1"></use><g><use xlink:href="#aMWrzsFGY" opacity="1" fill-opacity="0" stroke="#000000" stroke-width="1" stroke-opacity="0"></use></g></g><g><use xlink:href="#aq7k3JRxo" opacity="1" fill="#57a4ff" fill-opacity="1"></use><g><use xlink:href="#aq7k3JRxo" opacity="1" fill-opacity="0" stroke="#000000" stroke-width="1" stroke-opacity="0"></use></g></g><g><use xlink:href="#cuG53AMdC" opacity="1" fill="#57a4ff" fill-opacity="1"></use><g><use xlink:href="#cuG53AMdC" opacity="1" fill-opacity="0" stroke="#000000" stroke-width="1" stroke-opacity="0"></use></g></g><g><use xlink:href="#a2cSiR3lKM" opacity="1" fill="#57a4ff" fill-opacity="1"></use><g><use xlink:href="#a2cSiR3lKM" opacity="1" fill-opacity="0" stroke="#000000" stroke-width="1" stroke-opacity="0"></use></g></g><g><use xlink:href="#b4wqHwaTuo" opacity="1" fill="#57a4ff" fill-opacity="1"></use><g><use xlink:href="#b4wqHwaTuo" opacity="1" fill-opacity="0" stroke="#000000" stroke-width="1" stroke-opacity="0"></use></g></g><g><use xlink:href="#b4K51ZLhzf" opacity="1" fill="#57a4ff" fill-opacity="1"></use><g><use xlink:href="#b4K51ZLhzf" opacity="1" fill-opacity="0" stroke="#000000" stroke-width="1" stroke-opacity="0"></use></g></g><g><use xlink:href="#ctfvOoZhZ" opacity="1" fill="#57a4ff" fill-opacity="1"></use><g><use xlink:href="#ctfvOoZhZ" opacity="1" fill-opacity="0" stroke="#000000" stroke-width="1" stroke-opacity="0"></use></g></g><g><use xlink:href="#a4chLreKS" opacity="1" fill="#57a4ff" fill-opacity="1"></use><g><use xlink:href="#a4chLreKS" opacity="1" fill-opacity="0" stroke="#000000" stroke-width="1" stroke-opacity="0"></use></g></g><g><use xlink:href="#c76EnT4KR" opacity="1" fill="#57a4ff" fill-opacity="1"></use><g><use xlink:href="#c76EnT4KR" opacity="1" fill-opacity="0" stroke="#000000" stroke-width="1" stroke-opacity="0"></use></g></g><g><use xlink:href="#a1ALmaWSbi" opacity="1" fill="#57a4ff" fill-opacity="1"></use><g><use xlink:href="#a1ALmaWSbi" opacity="1" fill-opacity="0" stroke="#000000" stroke-width="1" stroke-opacity="0"></use></g></g><g><use xlink:href="#b1UYOonego" opacity="1" fill="#57a4ff" fill-opacity="1"></use><g><use xlink:href="#b1UYOonego" opacity="1" fill-opacity="0" stroke="#000000" stroke-width="1" stroke-opacity="0"></use></g></g><g><use xlink:href="#c1X6WC4YZM" opacity="1" fill="#57a4ff" fill-opacity="1"></use><g><use xlink:href="#c1X6WC4YZM" opacity="1" fill-opacity="0" stroke="#000000" stroke-width="1" stroke-opacity="0"></use></g></g><g><use xlink:href="#bbJHRjYvX" opacity="1" fill="#57a4ff" fill-opacity="1"></use><g><use xlink:href="#bbJHRjYvX" opacity="1" fill-opacity="0" stroke="#000000" stroke-width="1" stroke-opacity="0"></use></g></g><g><use xlink:href="#c3fgP3LNy" opacity="1" fill="#57a4ff" fill-opacity="1"></use><g><use xlink:href="#c3fgP3LNy" opacity="1" fill-opacity="0" stroke="#000000" stroke-width="1" stroke-opacity="0"></use></g></g><g><use xlink:href="#f2ryBeAi9z" opacity="1" fill="#57a4ff" fill-opacity="1"></use><g><use xlink:href="#f2ryBeAi9z" opacity="1" fill-opacity="0" stroke="#000000" stroke-width="1" stroke-opacity="0"></use></g></g><g><use xlink:href="#auU5yfEFh" opacity="1" fill="#57a4ff" fill-opacity="1"></use><g><use xlink:href="#auU5yfEFh" opacity="1" fill-opacity="0" stroke="#000000" stroke-width="1" stroke-opacity="0"></use></g></g><g><use xlink:href="#d1G45hC3Cr" opacity="1" fill="#57a4ff" fill-opacity="1"></use><g><use xlink:href="#d1G45hC3Cr" opacity="1" fill-opacity="0" stroke="#000000" stroke-width="1" stroke-opacity="0"></use></g></g><g><use xlink:href="#kzLkAP1Co" opacity="1" fill="#57a4ff" fill-opacity="1"></use><g><use xlink:href="#kzLkAP1Co" opacity="1" fill-opacity="0" stroke="#000000" stroke-width="1" stroke-opacity="0"></use></g></g><g><use xlink:href="#b7LZ9FOYX" opacity="1" fill="#57a4ff" fill-opacity="1"></use><g><use xlink:href="#b7LZ9FOYX" opacity="1" fill-opacity="0" stroke="#000000" stroke-width="1" stroke-opacity="0"></use></g></g><g><use xlink:href="#e37lOUtc4" opacity="1" fill="#57a4ff" fill-opacity="1"></use><g><use xlink:href="#e37lOUtc4" opacity="1" fill-opacity="0" stroke="#000000" stroke-width="1" stroke-opacity="0"></use></g></g><g><use xlink:href="#b6pvT3lqqF" opacity="1" fill="#57a4ff" fill-opacity="1"></use><g><use xlink:href="#b6pvT3lqqF" opacity="1" fill-opacity="0" stroke="#000000" stroke-width="1" stroke-opacity="0"></use></g></g><g><use xlink:href="#g7Ga1uM0YQ" opacity="1" fill="#57a4ff" fill-opacity="1"></use><g><use xlink:href="#g7Ga1uM0YQ" opacity="1" fill-opacity="0" stroke="#000000" stroke-width="1" stroke-opacity="0"></use></g></g><g><use xlink:href="#f2FzjgmPxj" opacity="1" fill="#57a4ff" fill-opacity="1"></use><g><use xlink:href="#f2FzjgmPxj" opacity="1" fill-opacity="0" stroke="#000000" stroke-width="1" stroke-opacity="0"></use></g></g><g><use xlink:href="#l3DwWsIv3Q" opacity="1" fill="#8162e4" fill-opacity="1"></use><g><use xlink:href="#l3DwWsIv3Q" opacity="1" fill-opacity="0" stroke="#000000" stroke-width="1" stroke-opacity="0"></use></g></g><g><use xlink:href="#a6oGu1liN" opacity="1" fill="#8162e4" fill-opacity="1"></use><g><use xlink:href="#a6oGu1liN" opacity="1" fill-opacity="0" stroke="#000000" stroke-width="1" stroke-opacity="0"></use></g></g><g><use xlink:href="#h1863sP42" opacity="1" fill="#8162e4" fill-opacity="1"></use><g><use xlink:href="#h1863sP42" opacity="1" fill-opacity="0" stroke="#000000" stroke-width="1" stroke-opacity="0"></use></g></g><g><use xlink:href="#bMxVyPxRP" opacity="1" fill="#8162e4" fill-opacity="1"></use><g><use xlink:href="#bMxVyPxRP" opacity="1" fill-opacity="0" stroke="#000000" stroke-width="1" stroke-opacity="0"></use></g></g><g><use xlink:href="#asofBE1ot" opacity="1" fill="#8162e4" fill-opacity="1"></use><g><use xlink:href="#asofBE1ot" opacity="1" fill-opacity="0" stroke="#000000" stroke-width="1" stroke-opacity="0"></use></g></g><g><use xlink:href="#c1cUJiMsX" opacity="1" fill="#8162e4" fill-opacity="1"></use><g><use xlink:href="#c1cUJiMsX" opacity="1" fill-opacity="0" stroke="#000000" stroke-width="1" stroke-opacity="0"></use></g></g><g><use xlink:href="#aXIqiCX6o" opacity="1" fill="#8162e4" fill-opacity="1"></use><g><use xlink:href="#aXIqiCX6o" opacity="1" fill-opacity="0" stroke="#000000" stroke-width="1" stroke-opacity="0"></use></g></g><g><use xlink:href="#cIQrEJwlR" opacity="1" fill="#8162e4" fill-opacity="1"></use><g><use xlink:href="#cIQrEJwlR" opacity="1" fill-opacity="0" stroke="#000000" stroke-width="1" stroke-opacity="0"></use></g></g><g><use xlink:href="#guKGBPNNV" opacity="1" fill="#8162e4" fill-opacity="1"></use><g><use xlink:href="#guKGBPNNV" opacity="1" fill-opacity="0" stroke="#000000" stroke-width="1" stroke-opacity="0"></use></g></g><g><use xlink:href="#cvOiKp6Kb" opacity="1" fill="#8162e4" fill-opacity="1"></use><g><use xlink:href="#cvOiKp6Kb" opacity="1" fill-opacity="0" stroke="#000000" stroke-width="1" stroke-opacity="0"></use></g></g><g><use xlink:href="#a3Ki5sY5SP" opacity="1" fill="#8162e4" fill-opacity="1"></use><g><use xlink:href="#a3Ki5sY5SP" opacity="1" fill-opacity="0" stroke="#000000" stroke-width="1" stroke-opacity="0"></use></g></g><g><use xlink:href="#a1dWaZGhph" opacity="1" fill="#8162e4" fill-opacity="1"></use><g><use xlink:href="#a1dWaZGhph" opacity="1" fill-opacity="0" stroke="#000000" stroke-width="1" stroke-opacity="0"></use></g></g><g><use xlink:href="#a3aVXJZ9Ov" opacity="1" fill="#8162e4" fill-opacity="1"></use><g><use xlink:href="#a3aVXJZ9Ov" opacity="1" fill-opacity="0" stroke="#000000" stroke-width="1" stroke-opacity="0"></use></g></g><g><use xlink:href="#axo2q6z4w" opacity="1" fill="#8162e4" fill-opacity="1"></use><g><use xlink:href="#axo2q6z4w" opacity="1" fill-opacity="0" stroke="#000000" stroke-width="1" stroke-opacity="0"></use></g></g><g><use xlink:href="#c10jr9QY62" opacity="1" fill="#8162e4" fill-opacity="1"></use><g><use xlink:href="#c10jr9QY62" opacity="1" fill-opacity="0" stroke="#000000" stroke-width="1" stroke-opacity="0"></use></g></g><g><use xlink:href="#aqytoIFVj" opacity="1" fill="#8162e4" fill-opacity="1"></use><g><use xlink:href="#aqytoIFVj" opacity="1" fill-opacity="0" stroke="#000000" stroke-width="1" stroke-opacity="0"></use></g></g><g><use xlink:href="#f3AZNUaLFc" opacity="1" fill="#8162e4" fill-opacity="1"></use><g><use xlink:href="#f3AZNUaLFc" opacity="1" fill-opacity="0" stroke="#000000" stroke-width="1" stroke-opacity="0"></use></g></g><g><use xlink:href="#b7HfSX87zP" opacity="1" fill="#8162e4" fill-opacity="1"></use><g><use xlink:href="#b7HfSX87zP" opacity="1" fill-opacity="0" stroke="#000000" stroke-width="1" stroke-opacity="0"></use></g></g><g><use xlink:href="#b4Ad0kInSQ" opacity="1" fill="#8162e4" fill-opacity="1"></use><g><use xlink:href="#b4Ad0kInSQ" opacity="1" fill-opacity="0" stroke="#000000" stroke-width="1" stroke-opacity="0"></use></g></g><g><use xlink:href="#a3Rl0DWpd3" opacity="1" fill="#8162e4" fill-opacity="1"></use><g><use xlink:href="#a3Rl0DWpd3" opacity="1" fill-opacity="0" stroke="#000000" stroke-width="1" stroke-opacity="0"></use></g></g><g><use xlink:href="#cZAc0vRCA" opacity="1" fill="#8162e4" fill-opacity="1"></use><g><use xlink:href="#cZAc0vRCA" opacity="1" fill-opacity="0" stroke="#000000" stroke-width="1" stroke-opacity="0"></use></g></g><g><use xlink:href="#h38Gl2AJPa" opacity="1" fill="#8162e4" fill-opacity="1"></use><g><use xlink:href="#h38Gl2AJPa" opacity="1" fill-opacity="0" stroke="#000000" stroke-width="1" stroke-opacity="0"></use></g></g><g><use xlink:href="#cDWFlGT7K" opacity="1" fill="#8162e4" fill-opacity="1"></use><g><use xlink:href="#cDWFlGT7K" opacity="1" fill-opacity="0" stroke="#000000" stroke-width="1" stroke-opacity="0"></use></g></g><g><use xlink:href="#c3TgX7Vw0G" opacity="1" fill="#2b1e55" fill-opacity="1"></use><g><use xlink:href="#c3TgX7Vw0G" opacity="1" fill-opacity="0" stroke="#000000" stroke-width="1" stroke-opacity="0"></use></g></g><g><use xlink:href="#a8hvBL5U" opacity="1" fill="#2b1e55" fill-opacity="1"></use><g><use xlink:href="#a8hvBL5U" opacity="1" fill-opacity="0" stroke="#000000" stroke-width="1" stroke-opacity="0"></use></g></g><g><use xlink:href="#a3ZkNrGSOR" opacity="1" fill="#2b1e55" fill-opacity="1"></use><g><use xlink:href="#a3ZkNrGSOR" opacity="1" fill-opacity="0" stroke="#000000" stroke-width="1" stroke-opacity="0"></use></g></g><g><use xlink:href="#a18HO9KSs4" opacity="1" fill="#2b1e55" fill-opacity="1"></use><g><use xlink:href="#a18HO9KSs4" opacity="1" fill-opacity="0" stroke="#000000" stroke-width="1" stroke-opacity="0"></use></g></g><g><use xlink:href="#h12xvpfHER" opacity="1" fill="#2b1e55" fill-opacity="1"></use><g><use xlink:href="#h12xvpfHER" opacity="1" fill-opacity="0" stroke="#000000" stroke-width="1" stroke-opacity="0"></use></g></g><g><use xlink:href="#aG3Ao7Hr" opacity="1" fill="#2b1e55" fill-opacity="1"></use><g><use xlink:href="#aG3Ao7Hr" opacity="1" fill-opacity="0" stroke="#000000" stroke-width="1" stroke-opacity="0"></use></g></g><g><use xlink:href="#jRNM6Aak3" opacity="1" fill="#2b1e55" fill-opacity="1"></use><g><use xlink:href="#jRNM6Aak3" opacity="1" fill-opacity="0" stroke="#000000" stroke-width="1" stroke-opacity="0"></use></g></g><g><use xlink:href="#h1lwm5deJ" opacity="1" fill="#2b1e55" fill-opacity="1"></use><g><use xlink:href="#h1lwm5deJ" opacity="1" fill-opacity="0" stroke="#000000" stroke-width="1" stroke-opacity="0"></use></g></g><g><use xlink:href="#a1MIZrw2pb" opacity="1" fill="#2b1e55" fill-opacity="1"></use><g><use xlink:href="#a1MIZrw2pb" opacity="1" fill-opacity="0" stroke="#000000" stroke-width="1" stroke-opacity="0"></use></g></g><g><use xlink:href="#dq6Ppybjl" opacity="1" fill="#2b1e55" fill-opacity="1"></use><g><use xlink:href="#dq6Ppybjl" opacity="1" fill-opacity="0" stroke="#000000" stroke-width="1" stroke-opacity="0"></use></g></g><g><use xlink:href="#a23LsEDUWx" opacity="1" fill="#2b1e55" fill-opacity="1"></use><g><use xlink:href="#a23LsEDUWx" opacity="1" fill-opacity="0" stroke="#000000" stroke-width="1" stroke-opacity="0"></use></g></g><g><use xlink:href="#a3m5Q0sNAF" opacity="1" fill="#2b1e55" fill-opacity="1"></use><g><use xlink:href="#a3m5Q0sNAF" opacity="1" fill-opacity="0" stroke="#000000" stroke-width="1" stroke-opacity="0"></use></g></g><g><use xlink:href="#e9mpb9YzS" opacity="1" fill="#2b1e55" fill-opacity="1"></use><g><use xlink:href="#e9mpb9YzS" opacity="1" fill-opacity="0" stroke="#000000" stroke-width="1" stroke-opacity="0"></use></g></g><g><use xlink:href="#asHc3dKBJ" opacity="1" fill="#2b1e55" fill-opacity="1"></use><g><use xlink:href="#asHc3dKBJ" opacity="1" fill-opacity="0" stroke="#000000" stroke-width="1" stroke-opacity="0"></use></g></g><g><use xlink:href="#anBPwP0un" opacity="1" fill="#2b1e55" fill-opacity="1"></use><g><use xlink:href="#anBPwP0un" opacity="1" fill-opacity="0" stroke="#000000" stroke-width="1" stroke-opacity="0"></use></g></g><g><use xlink:href="#i6EkubmDb" opacity="1" fill="#2b1e55" fill-opacity="1"></use><g><use xlink:href="#i6EkubmDb" opacity="1" fill-opacity="0" stroke="#000000" stroke-width="1" stroke-opacity="0"></use></g></g><g><use xlink:href="#dGQlwyHzF" opacity="1" fill="#2b1e55" fill-opacity="1"></use><g><use xlink:href="#dGQlwyHzF" opacity="1" fill-opacity="0" stroke="#000000" stroke-width="1" stroke-opacity="0"></use></g></g><g><use xlink:href="#c1qSN970uU" opacity="1" fill="#2b1e55" fill-opacity="1"></use><g><use xlink:href="#c1qSN970uU" opacity="1" fill-opacity="0" stroke="#000000" stroke-width="1" stroke-opacity="0"></use></g></g><g><use xlink:href="#c1gd7SlclF" opacity="1" fill="#2b1e55" fill-opacity="1"></use><g><use xlink:href="#c1gd7SlclF" opacity="1" fill-opacity="0" stroke="#000000" stroke-width="1" stroke-opacity="0"></use></g></g><g><use xlink:href="#b58VXR0zKr" opacity="1" fill="#2b1e55" fill-opacity="1"></use><g><use xlink:href="#b58VXR0zKr" opacity="1" fill-opacity="0" stroke="#000000" stroke-width="1" stroke-opacity="0"></use></g></g><g><use xlink:href="#aD8EtdprG" opacity="1" fill="#2b1e55" fill-opacity="1"></use><g><use xlink:href="#aD8EtdprG" opacity="1" fill-opacity="0" stroke="#000000" stroke-width="1" stroke-opacity="0"></use></g></g><g><use xlink:href="#b1tmoZF45z" opacity="1" fill="#2b1e55" fill-opacity="1"></use><g><use xlink:href="#b1tmoZF45z" opacity="1" fill-opacity="0" stroke="#000000" stroke-width="1" stroke-opacity="0"></use></g></g><g><use xlink:href="#c20BPs7Q37" opacity="1" fill="#2b1e55" fill-opacity="1"></use><g><use xlink:href="#c20BPs7Q37" opacity="1" fill-opacity="0" stroke="#000000" stroke-width="1" stroke-opacity="0"></use></g></g><g><use xlink:href="#hlUXWpose" opacity="1" fill="#2b1e55" fill-opacity="1"></use><g><use xlink:href="#hlUXWpose" opacity="1" fill-opacity="0" stroke="#000000" stroke-width="1" stroke-opacity="0"></use></g></g></g></g></svg>