<?xml version="1.0"?>
<svg xmlns="http://www.w3.org/2000/svg" height="512px" viewBox="0 -59 496 495" width="512px" class=""><g><g><g><path d="m456 128.5h-104v88c0 17.671875-14.328125 32-32 32h-176v88c0 17.671875 14.328125 32 32 32h280c17.671875 0 32-14.328125 32-32v-176c0-17.671875-14.328125-32-32-32zm-16 104h-64v-56h88zm0 0" fill="#57a4ff" data-original="#8162E4" class="" style="fill:#8162E4" data-old_color="#57a4ff"/><path d="m376 176.5v56l24-56zm0 0" fill="#57a4ff" data-original="#8162E4" class="" style="fill:#8162E4" data-old_color="#57a4ff"/><path d="m400 176.5-24 56h32l24-56zm0 0" fill="#57a4ff" data-original="#8162E4" class="" style="fill:#8162E4" data-old_color="#57a4ff"/><path d="m408 232.5h32l24-56h-32zm0 0" fill="#57a4ff" data-original="#8162E4" class="" style="fill:#8162E4" data-old_color="#57a4ff"/><path d="m266.664062 68.5c0 15.464844-12.535156 28-28 28-15.464843 0-28-12.535156-28-28s12.535157-28 28-28c15.464844 0 28 12.535156 28 28zm0 0" fill="#57a4ff" data-original="#8162E4" class="" style="fill:#8162E4" data-old_color="#57a4ff"/><g fill="#004fac"><path d="m40 88.5h16c4.417969 0 8-3.582031 8-8s-3.582031-8-8-8h-16c-4.417969 0-8 3.582031-8 8s3.582031 8 8 8zm0 0" data-original="#2B1E55" class="active-path" style="fill:#2B1E55" data-old_color="#004FAC"/><path d="m120 72.5h-40c-4.417969 0-8 3.582031-8 8s3.582031 8 8 8h40c4.417969 0 8-3.582031 8-8s-3.582031-8-8-8zm0 0" data-original="#2B1E55" class="active-path" style="fill:#2B1E55" data-old_color="#004FAC"/><path d="m120 40.5h-80c-4.417969 0-8 3.582031-8 8s3.582031 8 8 8h80c4.417969 0 8-3.582031 8-8s-3.582031-8-8-8zm0 0" data-original="#2B1E55" class="active-path" style="fill:#2B1E55" data-old_color="#004FAC"/><path d="m112 192.5h-72c-4.417969 0-8 3.582031-8 8s3.582031 8 8 8h72c4.417969 0 8-3.582031 8-8s-3.582031-8-8-8zm0 0" data-original="#2B1E55" class="active-path" style="fill:#2B1E55" data-old_color="#004FAC"/><path d="m216 192.5h-72c-4.417969 0-8 3.582031-8 8s3.582031 8 8 8h72c4.417969 0 8-3.582031 8-8s-3.582031-8-8-8zm0 0" data-original="#2B1E55" class="active-path" style="fill:#2B1E55" data-old_color="#004FAC"/><path d="m328 200.5c0-4.417969-3.582031-8-8-8h-72c-4.417969 0-8 3.582031-8 8s3.582031 8 8 8h72c4.417969 0 8-3.582031 8-8zm0 0" data-original="#2B1E55" class="active-path" style="fill:#2B1E55" data-old_color="#004FAC"/><path d="m456 120.5h-96v-80c-.027344-22.082031-17.917969-39.972656-40-40h-280c-22.082031.027344-39.9726562 17.917969-40 40v176c.0273438 22.082031 17.917969 39.972656 40 40h96v80c.027344 22.082031 17.917969 39.972656 40 40h280c22.082031-.027344 39.972656-17.917969 40-40v-176c-.027344-22.082031-17.917969-39.972656-40-40zm-35.871094 104 17.144532-40h14.597656l-17.144532 40zm-32 0 17.136719-40h14.597656l-17.144531 40zm81.136719-40h10.734375v40h-27.871094zm-429.265625 56c-13.253906 0-24-10.746094-24-24v-176c0-13.253906 10.746094-24 24-24h280c13.253906 0 24 10.746094 24 24v176c0 13.253906-10.746094 24-24 24zm336-72c-4.417969 0-8 3.582031-8 8 0 0 .046875 56.152344.046875 56.230469.023437.925781.207031 1.839843.546875 2.699219.070312.175781.160156.316406.238281.484374.136719.34375.300781.671876.488281.984376.25.351562.53125.683593.839844.984374.105469.113282.183594.242188.296875.351563.855469.667969 1.785157 1.238281 2.765625 1.707031.882813.328125 106.777344.558594 106.777344.558594v96c0 13.253906-10.746094 24-24 24h-280c-13.253906 0-24-10.746094-24-24v-80h168c22.082031-.027344 39.972656-17.917969 40-40v-80h96c13.253906 0 24 10.746094 24 24v8m-92.128906 16-3.871094 9.023438v-9.023438zm0 0" data-original="#2B1E55" class="active-path" style="fill:#2B1E55" data-old_color="#004FAC"/><path d="m274.664062 68.5c0-19.882812-16.117187-36-36-36-19.882812 0-36 16.117188-36 36s16.117188 36 36 36c19.882813 0 36-16.117188 36-36zm-36 20c-11.046874 0-20-8.953125-20-20s8.953126-20 20-20c11.046876 0 20 8.953125 20 20s-8.953124 20-20 20zm0 0" data-original="#2B1E55" class="active-path" style="fill:#2B1E55" data-old_color="#004FAC"/><path d="m281.128906 48.699219c.949219-.128907 1.910156-.199219 2.871094-.199219 11.046875 0 20 8.953125 20 20s-8.953125 20-20 20c-.960938 0-1.921875-.070312-2.871094-.199219-4.300781-.488281-8.207031 2.53125-8.820312 6.816407-.609375 4.28125 2.292968 8.277343 6.554687 9.015624 13.953125 2.007813 27.796875-4.308593 35.417969-16.167968 7.621094-11.855469 7.621094-27.074219 0-38.929688-7.621094-11.859375-21.464844-18.175781-35.417969-16.167968-2.894531.328124-5.382812 2.203124-6.496093 4.898437-1.109376 2.695313-.671876 5.78125 1.152343 8.054687 1.820313 2.273438 4.738281 3.378907 7.609375 2.878907zm0 0" data-original="#2B1E55" class="active-path" style="fill:#2B1E55" data-old_color="#004FAC"/></g></g></g></g> </svg>
