<?xml version="1.0" encoding="UTF-8" standalone="no"?>
<!DOCTYPE svg PUBLIC "-//W3C//DTD SVG 1.1//EN" "http://www.w3.org/Graphics/SVG/1.1/DTD/svg11.dtd">
<svg version="1.1" xmlns="http://www.w3.org/2000/svg" xmlns:xlink="http://www.w3.org/1999/xlink" preserveAspectRatio="xMidYMid meet" viewBox="0 0 400 400" width="400" height="400"><defs><path d="M199.39 319.36C136.43 249.34 101.44 210.45 94.45 202.67C34.26 142.48 139.19 61.14 199.39 121.33C263.04 57.66 367.97 139 304.29 202.67C290.31 218.23 255.34 257.12 199.39 319.36Z" id="eXLWN2QWL"></path><path d="M323.99 185.6C335.24 161.97 329.85 133.77 310.67 115.95C296.22 101.7 277.03 93.26 256.75 92.24C235.61 91.23 214.94 98.71 199.35 113.03C184.08 99.51 163.97 92.77 143.63 94.35C123.52 96 104.64 104.69 90.31 118.9C78.89 129.78 71.84 144.46 70.48 160.18C69.99 168.91 71.61 177.63 75.2 185.6C69.52 185.6 24.11 185.6 18.43 185.6C15.09 185.6 12.38 188.31 12.38 191.65C12.38 194.99 15.09 197.7 18.43 197.7C24.81 197.7 75.88 197.7 82.27 197.7C84.59 200.9 87.16 203.92 89.94 206.72C100.44 218.39 184.37 311.76 194.87 323.43C196.02 324.71 197.65 325.44 199.37 325.44C201.09 325.44 202.72 324.71 203.87 323.43C214.34 311.78 298.11 218.6 308.58 206.95C311.45 204.06 314.11 200.97 316.54 197.7C323.04 197.7 375.07 197.7 381.57 197.7C384.91 197.7 387.62 194.99 387.62 191.65C387.62 188.31 384.91 185.6 381.57 185.6C370.06 185.6 329.75 185.6 323.99 185.6ZM98.89 127.46C112.3 114.08 130.41 106.47 149.35 106.28C166.6 106.26 183.11 113.24 195.12 125.61C197.49 127.97 201.32 127.97 203.68 125.61C216.49 112.23 234.15 104.58 252.68 104.37C271.2 104.17 289.03 111.43 302.13 124.52C319.32 140.22 322.7 166 310.15 185.6C302.77 185.6 243.7 185.6 236.31 185.6C234.01 185.59 231.9 186.88 230.87 188.95C230.46 189.76 228.45 193.81 224.82 201.1C213.29 172.3 206.89 156.29 205.61 153.09C204.68 150.66 202.28 149.13 199.68 149.29C197.09 149.43 194.88 151.19 194.17 153.68C192.84 158.33 186.2 181.59 174.25 223.44C163.9 202.75 158.15 191.25 157 188.95C155.97 186.89 153.87 185.6 151.58 185.6C145.3 185.6 95.07 185.6 88.79 185.6C84.31 178.17 82.15 169.57 82.58 160.9C83.77 148.14 89.57 136.25 98.89 127.46ZM199.39 310.33C138.99 243.17 105.44 205.85 98.73 198.39C98.5 198.16 98.32 197.93 98.12 197.7C101.44 197.7 118.02 197.7 147.87 197.7C161.38 224.75 168.9 239.77 170.4 242.78C171.42 244.82 173.51 246.12 175.79 246.12C175.85 246.12 176.3 246.12 176.35 246.12C178.84 245.89 180.92 244.15 181.61 241.76C182.9 237.24 189.35 214.67 200.98 174.05C211.55 200.5 217.43 215.19 218.61 218.13C219.49 220.35 221.59 221.84 223.98 221.94C226.36 222.04 228.58 220.73 229.64 218.59C230.34 217.2 233.81 210.24 240.06 197.7C276.4 197.7 296.59 197.7 300.63 197.7C300.34 198.01 300.1 198.31 299.79 198.62C299.79 198.62 266.33 235.86 199.39 310.33Z" id="c6VOyEaR6X"></path><path d="M278.68 179.55C282.02 179.55 284.73 176.84 284.73 173.49C284.73 170.15 282.02 167.44 278.68 167.44C276.26 167.44 256.89 167.44 254.47 167.44C251.13 167.44 248.42 170.15 248.42 173.49C248.42 176.84 251.13 179.55 254.47 179.55C259.31 179.55 276.26 179.55 278.68 179.55Z" id="b2eE8K0J2i"></path><path d="M301.14 177.79C301.67 177.2 302.1 176.53 302.41 175.8C303.05 174.33 303.05 172.66 302.41 171.2C302.1 170.46 301.67 169.79 301.14 169.2C298.71 166.96 294.97 166.96 292.54 169.2C292.01 169.79 291.58 170.46 291.27 171.2C290.62 172.66 290.62 174.33 291.27 175.8C291.58 176.53 292.01 177.2 292.54 177.79C294.93 180.13 298.75 180.13 301.14 177.79Z" id="e1rPeA8bjU"></path></defs><g><g><g><use xlink:href="#eXLWN2QWL" opacity="1" fill="#8162e4" fill-opacity="1"></use><g><use xlink:href="#eXLWN2QWL" opacity="1" fill-opacity="0" stroke="#000000" stroke-width="1" stroke-opacity="0"></use></g></g><g><use xlink:href="#c6VOyEaR6X" opacity="1" fill="#2b1e55" fill-opacity="1"></use><g><use xlink:href="#c6VOyEaR6X" opacity="1" fill-opacity="0" stroke="#000000" stroke-width="1" stroke-opacity="0"></use></g></g><g><use xlink:href="#b2eE8K0J2i" opacity="1" fill="#2b1e55" fill-opacity="1"></use><g><use xlink:href="#b2eE8K0J2i" opacity="1" fill-opacity="0" stroke="#000000" stroke-width="1" stroke-opacity="0"></use></g></g><g><use xlink:href="#e1rPeA8bjU" opacity="1" fill="#2b1e55" fill-opacity="1"></use><g><use xlink:href="#e1rPeA8bjU" opacity="1" fill-opacity="0" stroke="#000000" stroke-width="1" stroke-opacity="0"></use></g></g></g></g></svg>