<?xml version="1.0" encoding="UTF-8" standalone="no"?>
<!DOCTYPE svg PUBLIC "-//W3C//DTD SVG 1.1//EN" "http://www.w3.org/Graphics/SVG/1.1/DTD/svg11.dtd">
<svg version="1.1" xmlns="http://www.w3.org/2000/svg" xmlns:xlink="http://www.w3.org/1999/xlink" preserveAspectRatio="xMidYMid meet" viewBox="0 0 400 400" width="400" height="400"><defs><path d="M67.19 175.48C44.87 175.48 26.77 193.57 26.77 215.9C26.77 238.22 44.87 256.32 67.19 256.32C89.51 256.32 107.61 238.22 107.61 215.9C107.61 193.57 89.51 175.48 67.19 175.48Z" id="b1VtpY0va"></path><path d="M332.81 175.48C310.49 175.48 292.39 193.57 292.39 215.9C292.39 238.22 310.49 256.32 332.81 256.32C355.13 256.32 373.23 238.22 373.23 215.9C373.23 193.57 355.13 175.48 332.81 175.48Z" id="e1en9uFQJY"></path><path d="M153.81 214.45C153.81 239.97 174.49 260.65 200 260.65C225.51 260.65 246.19 239.97 246.19 214.45C246.17 188.95 225.5 168.29 200 168.26C174.49 168.26 153.81 188.94 153.81 214.45ZM165.35 214.45C165.35 195.32 180.87 179.81 200 179.81C219.13 179.81 234.65 195.32 234.65 214.45C234.62 233.58 219.13 249.08 200 249.1C180.87 249.1 165.35 233.59 165.35 214.45Z" id="eX0wD1K4M"></path><path d="M21 214.45C21 239.97 41.68 260.65 67.19 260.65C92.7 260.65 113.39 239.97 113.39 214.45C113.36 188.95 92.69 168.29 67.19 168.26C41.68 168.26 21 188.94 21 214.45ZM32.55 214.45C32.55 195.32 48.06 179.81 67.19 179.81C86.33 179.81 101.84 195.32 101.84 214.45C101.82 233.58 86.32 249.08 67.19 249.1C48.06 249.1 32.55 233.59 32.55 214.45Z" id="aTZxuzMYd"></path><path d="M286.61 214.45C286.61 239.97 307.3 260.65 332.81 260.65C358.32 260.65 379 239.97 379 214.45C378.97 188.95 358.31 168.29 332.81 168.26C307.3 168.26 286.61 188.94 286.61 214.45ZM298.16 214.45C298.16 195.32 313.67 179.81 332.81 179.81C351.94 179.81 367.45 195.32 367.45 214.45C367.43 233.58 351.93 249.08 332.81 249.1C313.67 249.1 298.16 233.59 298.16 214.45Z" id="b3UukTKpO6"></path></defs><g><g><g><use xlink:href="#b1VtpY0va" opacity="1" fill="#8162e4" fill-opacity="1"></use><g><use xlink:href="#b1VtpY0va" opacity="1" fill-opacity="0" stroke="#000000" stroke-width="1" stroke-opacity="0"></use></g></g><g><use xlink:href="#e1en9uFQJY" opacity="1" fill="#8162e4" fill-opacity="1"></use><g><use xlink:href="#e1en9uFQJY" opacity="1" fill-opacity="0" stroke="#000000" stroke-width="1" stroke-opacity="0"></use></g></g><g><use xlink:href="#eX0wD1K4M" opacity="1" fill="#2b1e55" fill-opacity="1"></use><g><use xlink:href="#eX0wD1K4M" opacity="1" fill-opacity="0" stroke="#000000" stroke-width="1" stroke-opacity="0"></use></g></g><g><use xlink:href="#aTZxuzMYd" opacity="1" fill="#2b1e55" fill-opacity="1"></use><g><use xlink:href="#aTZxuzMYd" opacity="1" fill-opacity="0" stroke="#000000" stroke-width="1" stroke-opacity="0"></use></g></g><g><use xlink:href="#b3UukTKpO6" opacity="1" fill="#2b1e55" fill-opacity="1"></use><g><use xlink:href="#b3UukTKpO6" opacity="1" fill-opacity="0" stroke="#000000" stroke-width="1" stroke-opacity="0"></use></g></g></g></g></svg>