<?xml version="1.0" encoding="UTF-8" standalone="no"?>
<!DOCTYPE svg PUBLIC "-//W3C//DTD SVG 1.1//EN" "http://www.w3.org/Graphics/SVG/1.1/DTD/svg11.dtd">
<svg version="1.1" xmlns="http://www.w3.org/2000/svg" xmlns:xlink="http://www.w3.org/1999/xlink" preserveAspectRatio="xMidYMid meet" viewBox="0 0 400 400" width="400" height="400"><defs><path d="M227.32 247.67L227.32 348.97L283.04 348.97L283.04 247.67L227.32 247.67ZM267.84 293.25L267.87 293.28L267.84 293.25Z" id="b2IBLZmwCf"></path><path d="M131.08 318.58L202 318.58L202 247.67L131.08 247.67L131.08 318.58ZM166.54 252.73L166.54 283.12L166.54 252.73Z" id="cF68J4Qv"></path><path d="M227.32 176.76L186.8 176.76L186.8 217.28L227.32 217.28L227.32 176.76ZM207.06 212.21L207.06 197.02L207.06 212.21Z" id="awjt5wzpX"></path><path d="M267.84 293.28C267.83 293.28 267.82 293.27 267.82 293.25C267.82 293.24 267.83 293.23 267.84 293.23C267.85 293.23 267.87 293.24 267.87 293.25C267.87 293.27 267.85 293.28 267.84 293.28Z" id="j1qM6cpkzA"></path><path d="M101.47 45.07L55.11 126.11L359.01 126.11L312.65 45.07L101.47 45.07Z" id="b289rUg1c"></path><path d="M131.08 242.6C128.29 242.6 126.02 244.87 126.02 247.67C126.02 254.76 126.02 311.49 126.02 318.58C126.02 321.38 128.29 323.65 131.08 323.65C138.18 323.65 194.9 323.65 202 323.65C204.79 323.65 207.06 321.38 207.06 318.58C207.06 311.49 207.06 254.76 207.06 247.67C207.06 244.87 204.79 242.6 202 242.6C187.81 242.6 138.18 242.6 131.08 242.6ZM196.93 252.73L196.93 278.06L171.6 278.06L171.6 252.73L196.93 252.73ZM136.15 252.73L161.47 252.73L161.47 278.06L136.15 278.06L136.15 252.73ZM136.15 313.52L136.15 288.19L161.47 288.19L161.47 313.52L136.15 313.52ZM196.93 313.52L171.6 313.52L171.6 288.19L196.93 288.19L196.93 313.52Z" id="a5hq2YQBuU"></path><path d="M186.8 171.69C184 171.69 181.73 173.96 181.73 176.76C181.73 180.81 181.73 213.23 181.73 217.28C181.73 220.08 184 222.34 186.8 222.34C190.85 222.34 223.27 222.34 227.32 222.34C230.12 222.34 232.39 220.08 232.39 217.28C232.39 213.23 232.39 180.81 232.39 176.76C232.39 173.96 230.12 171.69 227.32 171.69C219.22 171.69 190.85 171.69 186.8 171.69ZM222.26 181.82L222.26 191.95L212.13 191.95L212.13 181.82L222.26 181.82ZM191.87 181.82L202 181.82L202 191.95L191.87 191.95L191.87 181.82ZM191.87 212.21L191.87 202.08L202 202.08L202 212.21L191.87 212.21ZM222.26 212.21L212.13 212.21L212.13 202.08L222.26 202.08L222.26 212.21Z" id="b2SJOPbjYA"></path><path d="M267.84 298.34C265.03 298.34 262.75 296.06 262.75 293.25C262.75 290.44 265.03 288.16 267.84 288.16C270.65 288.16 272.93 290.44 272.93 293.25C272.93 296.06 270.65 298.34 267.84 298.34Z" id="b1tGXfrkY"></path><path d="M364.08 128.64C364.05 128.26 363.97 127.9 363.86 127.54C364.25 126.22 364.09 124.79 363.41 123.59C358.77 115.49 321.69 50.66 317.05 42.55C316.15 40.98 314.47 40.02 312.66 40.02C291.53 40.02 122.56 40.02 101.44 40.02C99.63 40.02 97.95 40.98 97.05 42.55C92.41 50.66 55.33 115.49 50.69 123.59C50.01 124.79 49.85 126.22 50.25 127.54C50.13 127.9 50.06 128.27 50.04 128.64C50.79 147.5 66.63 162.21 85.5 161.56C90.73 161.56 95.91 160.46 100.69 158.34C100.69 170.71 100.69 232.57 100.69 343.91C73.34 343.91 58.15 343.91 55.11 343.91C52.31 343.91 50.04 346.17 50.04 348.97C50.04 351.77 52.31 354.04 55.11 354.04C85.5 354.04 328.62 354.04 359.01 354.04C361.81 354.04 364.08 351.77 364.08 348.97C364.08 346.17 361.81 343.91 359.01 343.91C355.97 343.91 340.78 343.91 313.43 343.91C313.43 232.57 313.43 170.71 313.43 158.34C318.21 160.46 323.39 161.56 328.62 161.56C347.49 162.21 363.33 147.5 364.08 128.64ZM303.58 131.17C308.59 131.17 348.66 131.17 353.66 131.17C351.57 143.25 340.87 151.91 328.62 151.43C316.38 151.91 305.67 143.25 303.58 131.17ZM104.4 50.13L309.72 50.13L350.28 121.04L63.84 121.04L104.4 50.13ZM292.88 131.17C290.36 142.99 279.93 151.44 267.84 151.44C255.76 151.44 245.32 142.99 242.8 131.17C252.81 131.17 282.87 131.17 292.88 131.17ZM232.1 131.17C230.01 143.25 219.31 151.91 207.06 151.43C194.82 151.91 184.11 143.25 182.02 131.17C192.03 131.17 222.08 131.17 232.1 131.17ZM171.32 131.17C169.23 143.25 158.52 151.91 146.28 151.43C134.03 151.91 123.33 143.25 121.24 131.17C131.25 131.17 161.3 131.17 171.32 131.17ZM110.54 131.17C108.45 143.25 97.74 151.91 85.5 151.43C73.25 151.91 62.55 143.25 60.45 131.17C70.47 131.17 105.53 131.17 110.54 131.17ZM277.97 343.91L232.39 343.91L232.39 252.73L277.97 252.73L277.97 343.91ZM288.1 343.91C288.1 286.16 288.1 254.08 288.1 247.67C288.1 244.87 285.83 242.6 283.04 242.6C277.47 242.6 232.89 242.6 227.32 242.6C224.52 242.6 222.26 244.87 222.26 247.67C222.26 254.08 222.26 286.16 222.26 343.91L110.82 343.91C110.82 228.54 110.82 164.45 110.82 151.64C112.75 149.8 114.45 147.74 115.89 145.51C122.74 155.55 134.12 161.56 146.28 161.56C158.44 161.56 169.81 155.55 176.67 145.51C183.53 155.55 194.9 161.56 207.06 161.56C219.22 161.56 230.6 155.55 237.45 145.51C244.31 155.55 255.68 161.56 267.84 161.56C280 161.56 291.38 155.55 298.23 145.51C299.67 147.74 301.37 149.8 303.3 151.64C303.3 164.45 303.3 228.54 303.3 343.91L288.1 343.91Z" id="bfi58QrL3"></path></defs><g><g><g><use xlink:href="#b2IBLZmwCf" opacity="1" fill="#8162e4" fill-opacity="1"></use><g><use xlink:href="#b2IBLZmwCf" opacity="1" fill-opacity="0" stroke="#000000" stroke-width="1" stroke-opacity="0"></use></g></g><g><use xlink:href="#cF68J4Qv" opacity="1" fill="#8162e4" fill-opacity="1"></use><g><use xlink:href="#cF68J4Qv" opacity="1" fill-opacity="0" stroke="#000000" stroke-width="1" stroke-opacity="0"></use></g></g><g><use xlink:href="#awjt5wzpX" opacity="1" fill="#8162e4" fill-opacity="1"></use><g><use xlink:href="#awjt5wzpX" opacity="1" fill-opacity="0" stroke="#000000" stroke-width="1" stroke-opacity="0"></use></g></g><g><use xlink:href="#j1qM6cpkzA" opacity="1" fill="#57a4ff" fill-opacity="1"></use><g><use xlink:href="#j1qM6cpkzA" opacity="1" fill-opacity="0" stroke="#000000" stroke-width="1" stroke-opacity="0"></use></g></g><g><use xlink:href="#b289rUg1c" opacity="1" fill="#8162e4" fill-opacity="1"></use><g><use xlink:href="#b289rUg1c" opacity="1" fill-opacity="0" stroke="#000000" stroke-width="1" stroke-opacity="0"></use></g></g><g><use xlink:href="#a5hq2YQBuU" opacity="1" fill="#2b1e55" fill-opacity="1"></use><g><use xlink:href="#a5hq2YQBuU" opacity="1" fill-opacity="0" stroke="#000000" stroke-width="1" stroke-opacity="0"></use></g></g><g><use xlink:href="#b2SJOPbjYA" opacity="1" fill="#2b1e55" fill-opacity="1"></use><g><use xlink:href="#b2SJOPbjYA" opacity="1" fill-opacity="0" stroke="#000000" stroke-width="1" stroke-opacity="0"></use></g></g><g><use xlink:href="#b1tGXfrkY" opacity="1" fill="#004fac" fill-opacity="1"></use><g><use xlink:href="#b1tGXfrkY" opacity="1" fill-opacity="0" stroke="#000000" stroke-width="1" stroke-opacity="0"></use></g></g><g><use xlink:href="#bfi58QrL3" opacity="1" fill="#2b1e55" fill-opacity="1"></use><g><use xlink:href="#bfi58QrL3" opacity="1" fill-opacity="0" stroke="#000000" stroke-width="1" stroke-opacity="0"></use></g></g></g></g></svg>