<?xml version="1.0" encoding="UTF-8" standalone="no"?>
<!DOCTYPE svg PUBLIC "-//W3C//DTD SVG 1.1//EN" "http://www.w3.org/Graphics/SVG/1.1/DTD/svg11.dtd">
<svg version="1.1" xmlns="http://www.w3.org/2000/svg" xmlns:xlink="http://www.w3.org/1999/xlink" preserveAspectRatio="xMidYMid meet" viewBox="0 0 400 400" width="400" height="400"><defs><path d="M350.84 283.96C350.84 287.02 353.32 289.5 356.38 289.5C357.48 289.5 363.02 289.5 373 289.5L373 311.66C336.43 311.66 316.12 311.66 312.05 311.66C312.05 305.54 307.09 300.58 300.97 300.58C294.85 300.58 289.89 305.54 289.89 311.66C272.16 311.66 130.32 311.66 112.59 311.66C112.59 305.54 107.63 300.58 101.51 300.58C95.39 300.58 90.43 305.54 90.43 311.66C87.11 311.66 70.48 311.66 40.57 311.66L40.57 289.5C47.21 289.5 50.91 289.5 51.65 289.5C54.71 289.5 57.19 287.02 57.19 283.96C57.19 283.41 57.19 278.98 57.19 278.42C57.19 275.36 54.71 272.88 51.65 272.88C50.91 272.88 47.21 272.88 40.57 272.88L40.57 256.26L373 256.26L373 272.88C363.02 272.88 357.48 272.88 356.38 272.88C353.32 272.88 350.84 275.36 350.84 278.42C350.84 279.53 350.84 283.41 350.84 283.96Z" id="a3aw8sLhpw"></path><path d="M68.27 311.66C68.27 330.02 83.15 344.91 101.51 344.91C119.87 344.91 134.75 330.02 134.75 311.66C134.75 293.31 119.87 278.42 101.51 278.42C83.15 278.42 68.27 293.31 68.27 311.66ZM90.43 311.66C90.43 305.54 95.39 300.58 101.51 300.58C107.63 300.58 112.59 305.54 112.59 311.66C112.59 317.78 107.63 322.75 101.51 322.75C95.39 322.75 90.43 317.78 90.43 311.66Z" id="a5bXbMFChG"></path><path d="M267.73 311.66C267.73 330.02 282.61 344.91 300.97 344.91C319.33 344.91 334.21 330.02 334.21 311.66C334.21 293.31 319.33 278.42 300.97 278.42C282.61 278.42 267.73 293.31 267.73 311.66ZM289.89 311.66C289.89 305.54 294.85 300.58 300.97 300.58C307.09 300.58 312.05 305.54 312.05 311.66C312.05 317.78 307.09 322.75 300.97 322.75C294.85 322.75 289.89 317.78 289.89 311.66Z" id="dQgdiCylM"></path><path d="M101.51 172.46L101.51 228.56L40.57 228.56C40.57 201.96 40.57 187.19 40.57 184.23C40.56 180.21 41.29 176.22 42.71 172.46C42.71 172.46 62.31 172.46 101.51 172.46Z" id="d4sj7e8mJc"></path><path d="M123.67 173.15L256.65 173.15L256.65 228.56L123.67 228.56L123.67 173.15Z" id="bik9gtRW5"></path><path d="M365.45 228.56L278.81 228.56L278.81 173.15L346.58 173.15L365.45 228.56Z" id="b1dsCjtfAk"></path><path d="M123.67 173.15L256.65 173.15L256.65 228.56L123.67 228.56L123.67 173.15Z" id="a6lLVX3sFI"></path><path d="M365.45 228.56L278.81 228.56L278.81 173.15L346.58 173.15L365.45 228.56Z" id="d2VASOItQt"></path><path d="M101.51 172.46L101.51 228.56L40.57 228.56L42.71 172.46L101.51 172.46Z" id="bGrDI9BK7"></path><path d="M350.84 134.37L57.19 134.37L57.19 117.75L339.75 117.75L350.84 134.37Z" id="c35imA0Lbf"></path><path d="M79.35 117.75C76.03 97.8 74.18 86.72 73.81 84.5C92.17 84.5 107.05 99.39 107.05 117.75C103.36 117.75 94.12 117.75 79.35 117.75Z" id="b2VRaV0bKN"></path><path d="M151.38 67.88L173.54 67.88L173.54 84.5L151.38 84.5L151.38 67.88Z" id="a1wqQeMis"></path><path d="M206.78 67.88L228.94 67.88L228.94 84.5L206.78 84.5L206.78 67.88Z" id="dsz7m1Xyo"></path><path d="M284.35 311.66C284.35 320.84 291.79 328.29 300.97 328.29C310.15 328.29 317.59 320.84 317.59 311.66C317.58 302.49 310.15 295.05 300.97 295.04C291.79 295.04 284.35 302.48 284.35 311.66ZM295.43 311.66C295.43 308.6 297.91 306.12 300.97 306.12C304.03 306.12 306.51 308.6 306.51 311.66C306.51 314.72 304.03 317.2 300.97 317.21C297.91 317.21 295.43 314.72 295.43 311.66Z" id="ayJNK3rwq"></path><path d="M84.89 311.66C84.89 320.84 92.33 328.29 101.51 328.29C110.69 328.29 118.13 320.84 118.13 311.66C118.12 302.49 110.69 295.05 101.51 295.04C92.33 295.04 84.89 302.48 84.89 311.66ZM95.97 311.66C95.97 308.6 98.45 306.12 101.51 306.12C104.57 306.12 107.05 308.6 107.05 311.66C107.05 314.72 104.57 317.2 101.51 317.21C98.45 317.21 95.97 314.72 95.97 311.66Z" id="a2yP8myx1"></path><path d="M351.87 171.5L351.87 171.5C351.35 169.97 351.06 169.12 351 168.95C350.95 168.79 350.89 168.64 350.82 168.48C344.59 154.48 330.71 145.46 315.38 145.45C312.94 145.45 300.75 145.45 278.81 145.45L278.81 139.91C322.02 139.91 346.03 139.91 350.84 139.91C353.9 139.9 356.38 137.42 356.37 134.35C356.37 133.26 356.05 132.2 355.45 131.29C354.34 129.63 345.48 116.33 344.37 114.67C343.34 113.13 341.61 112.21 339.75 112.21C333.84 112.21 304.3 112.21 251.11 112.21C251.11 95.58 251.11 86.35 251.11 84.5C251.11 81.44 248.63 78.96 245.57 78.96C244.83 78.96 241.13 78.96 234.48 78.96C234.48 72.31 234.48 68.62 234.48 67.88C234.48 64.82 232 62.34 228.94 62.34C226.73 62.34 209 62.34 206.78 62.34C203.72 62.34 201.24 64.82 201.24 67.88C201.24 68.62 201.24 72.31 201.24 78.96L179.08 78.96C179.08 72.31 179.08 68.62 179.08 67.88C179.08 64.82 176.6 62.34 173.54 62.34C171.32 62.34 153.59 62.34 151.38 62.34C148.32 62.34 145.84 64.82 145.84 67.88C145.84 68.62 145.84 72.31 145.84 78.96C139.19 78.96 135.49 78.96 134.75 78.96C131.69 78.96 129.21 81.44 129.21 84.5C129.21 86.35 129.21 95.58 129.21 112.21C119 112.21 113.33 112.21 112.19 112.21C109.41 93.14 93.08 78.99 73.81 78.96C70.75 78.96 68.27 81.44 68.27 84.5C68.27 84.81 68.29 85.11 68.34 85.41C68.64 87.2 70.13 96.13 72.81 112.21C63.44 112.21 58.23 112.21 57.19 112.21C54.13 112.21 51.65 114.69 51.65 117.75C51.65 119.41 51.65 132.71 51.65 134.37C51.65 137.43 54.13 139.91 57.19 139.91C60.51 139.91 77.13 139.91 107.05 139.91L107.05 145.45C87.11 145.45 76.03 145.45 73.81 145.45C57.84 145.47 43.52 155.26 37.69 170.12C37.58 170.35 37.49 170.58 37.42 170.82C35.83 175.11 35.02 179.65 35.03 184.23C35.03 196.98 35.03 298.92 35.03 311.66C35.03 314.72 37.51 317.21 40.57 317.21C42.82 317.21 60.87 317.21 63.13 317.21C64.35 325.63 68.31 333.42 74.4 339.37C71.02 339.37 43.95 339.37 40.57 339.37C37.51 339.37 35.03 341.85 35.03 344.91C35.03 347.97 37.51 350.45 40.57 350.45C71.59 350.45 319.81 350.45 350.84 350.45C353.9 350.45 356.38 347.97 356.38 344.91C356.38 341.85 353.9 339.37 350.84 339.37C348.56 339.37 330.35 339.37 328.08 339.37C334.17 333.42 338.13 325.63 339.35 317.21C342.72 317.21 369.63 317.21 373 317.21C376.06 317.21 378.54 314.72 378.54 311.66C378.54 305.57 378.54 256.81 378.54 250.72C378.54 250.11 378.44 249.51 378.24 248.93C374.73 238.61 365.94 212.8 351.87 171.5ZM357.71 223.02L284.35 223.02L284.35 178.69L342.61 178.69L357.71 223.02ZM212.32 73.42L223.4 73.42L223.4 78.96L212.32 78.96L212.32 73.42ZM195.7 90.04L240.02 90.04L240.02 112.21L195.7 112.21L195.7 90.04ZM156.92 73.42L168 73.42L168 78.96L156.92 78.96L156.92 73.42ZM140.3 90.04L184.62 90.04L184.62 112.21L140.3 112.21L140.3 90.04ZM84.04 112.21C81.91 99.39 80.72 92.28 80.49 90.85C90.84 93.45 98.8 101.75 100.96 112.21C98.7 112.21 93.06 112.21 84.04 112.21ZM62.73 128.83L62.73 123.29L336.79 123.29L340.48 128.83L62.73 128.83ZM267.73 139.91L267.73 145.45L118.13 145.45L118.13 139.91L267.73 139.91ZM46.11 184.23C46.11 182.13 46.35 180.04 46.82 178C50.1 178 66.48 178 95.97 178L95.97 223.02L46.11 223.02C46.11 202.33 46.11 189.4 46.11 184.23ZM46.11 234.1C79.35 234.1 97.82 234.1 101.51 234.1C104.57 234.1 107.05 231.62 107.05 228.56C107.05 222.95 107.05 178.07 107.05 172.46C107.05 169.4 104.57 166.92 101.51 166.92C96.58 166.92 57.14 166.92 52.21 166.92C57.46 160.35 65.4 156.53 73.81 156.53C97.97 156.53 291.23 156.53 315.38 156.53C324.1 156.53 332.31 160.64 337.54 167.61C331.67 167.61 284.68 167.61 278.81 167.61C275.75 167.61 273.27 170.09 273.27 173.15C273.27 178.69 273.27 223.02 273.27 228.56C273.27 231.62 275.75 234.1 278.81 234.1C284.32 234.1 311.88 234.1 361.49 234.1L367.15 250.72L46.11 250.72L46.11 234.1ZM46.11 278.42L51.65 278.42L51.65 283.96L46.11 283.96L46.11 278.42ZM73.81 311.66C73.81 296.37 86.21 283.96 101.51 283.96C116.81 283.96 129.21 296.37 129.21 311.66C129.2 326.96 116.8 339.35 101.51 339.37C86.21 339.37 73.81 326.96 73.81 311.66ZM128.62 339.37C134.71 333.42 138.67 325.63 139.89 317.21C152.16 317.21 250.32 317.21 262.59 317.21C263.81 325.63 267.77 333.42 273.86 339.37C244.81 339.37 157.67 339.37 128.62 339.37ZM273.27 311.66C273.27 296.37 285.67 283.96 300.97 283.96C316.27 283.96 328.67 296.37 328.67 311.66C328.66 326.96 316.26 339.35 300.97 339.37C285.67 339.37 273.27 326.96 273.27 311.66ZM367.46 283.96L356.38 283.96L356.38 278.42L367.46 278.42L367.46 283.96ZM367.46 267.34C360.81 267.34 357.12 267.34 356.38 267.34C350.26 267.35 345.3 272.3 345.3 278.42C345.3 278.98 345.3 283.41 345.3 283.96C345.3 290.08 350.26 295.04 356.38 295.04C357.12 295.04 360.81 295.04 367.46 295.04L367.46 306.12C350.59 306.12 341.23 306.12 339.35 306.12C336.29 284.93 316.63 270.22 295.43 273.28C278.41 275.74 265.04 289.11 262.59 306.12C250.32 306.12 152.16 306.12 139.89 306.12C136.83 284.93 117.17 270.22 95.97 273.28C78.95 275.74 65.59 289.11 63.13 306.12C61.99 306.12 56.32 306.12 46.11 306.12L46.11 295.04C49.43 295.04 51.28 295.04 51.65 295.04C57.76 295.04 62.72 290.08 62.73 283.96C62.73 283.41 62.73 278.98 62.73 278.42C62.72 272.3 57.76 267.35 51.65 267.34C51.28 267.34 49.43 267.34 46.11 267.34L46.11 261.8L367.46 261.8L367.46 267.34Z" id="k32xSAnRg"></path><path d="M256.65 234.1C259.71 234.1 262.19 231.62 262.19 228.56C262.19 223.02 262.19 178.69 262.19 173.15C262.19 170.09 259.71 167.61 256.65 167.61C243.35 167.61 136.97 167.61 123.67 167.61C120.61 167.61 118.13 170.09 118.13 173.15C118.13 178.69 118.13 223.02 118.13 228.56C118.13 231.62 120.61 234.1 123.67 234.1C150.27 234.1 243.35 234.1 256.65 234.1ZM251.11 223.02L195.7 223.02L195.7 178.69L251.11 178.69L251.11 223.02ZM129.21 178.69L184.62 178.69L184.62 223.02L129.21 223.02L129.21 178.69Z" id="c2cnPndTsu"></path><path d="M367.46 339.37C364.4 339.37 361.92 341.85 361.92 344.91C361.92 347.97 364.4 350.45 367.46 350.45C368.01 350.45 372.44 350.45 373 350.45C376.06 350.45 378.54 347.97 378.54 344.91C378.54 341.85 376.06 339.37 373 339.37C371.89 339.37 368.01 339.37 367.46 339.37Z" id="aq2yK0LU"></path></defs><g><g><g><use xlink:href="#a3aw8sLhpw" opacity="1" fill="#8162e4" fill-opacity="1"></use><g><use xlink:href="#a3aw8sLhpw" opacity="1" fill-opacity="0" stroke="#000000" stroke-width="1" stroke-opacity="0"></use></g></g><g><use xlink:href="#a5bXbMFChG" opacity="1" fill="#8162e4" fill-opacity="1"></use><g><use xlink:href="#a5bXbMFChG" opacity="1" fill-opacity="0" stroke="#000000" stroke-width="1" stroke-opacity="0"></use></g></g><g><use xlink:href="#dQgdiCylM" opacity="1" fill="#8162e4" fill-opacity="1"></use><g><use xlink:href="#dQgdiCylM" opacity="1" fill-opacity="0" stroke="#000000" stroke-width="1" stroke-opacity="0"></use></g></g><g><use xlink:href="#d4sj7e8mJc" opacity="1" fill="#57a4ff" fill-opacity="1"></use><g><use xlink:href="#d4sj7e8mJc" opacity="1" fill-opacity="0" stroke="#000000" stroke-width="1" stroke-opacity="0"></use></g></g><g><use xlink:href="#bik9gtRW5" opacity="1" fill="#57a4ff" fill-opacity="1"></use><g><use xlink:href="#bik9gtRW5" opacity="1" fill-opacity="0" stroke="#000000" stroke-width="1" stroke-opacity="0"></use></g></g><g><use xlink:href="#b1dsCjtfAk" opacity="1" fill="#57a4ff" fill-opacity="1"></use><g><use xlink:href="#b1dsCjtfAk" opacity="1" fill-opacity="0" stroke="#000000" stroke-width="1" stroke-opacity="0"></use></g></g><g><use xlink:href="#a6lLVX3sFI" opacity="1" fill="#8162e4" fill-opacity="1"></use><g><use xlink:href="#a6lLVX3sFI" opacity="1" fill-opacity="0" stroke="#000000" stroke-width="1" stroke-opacity="0"></use></g></g><g><use xlink:href="#d2VASOItQt" opacity="1" fill="#8162e4" fill-opacity="1"></use><g><use xlink:href="#d2VASOItQt" opacity="1" fill-opacity="0" stroke="#000000" stroke-width="1" stroke-opacity="0"></use></g></g><g><use xlink:href="#bGrDI9BK7" opacity="1" fill="#8162e4" fill-opacity="1"></use><g><use xlink:href="#bGrDI9BK7" opacity="1" fill-opacity="0" stroke="#000000" stroke-width="1" stroke-opacity="0"></use></g></g><g><use xlink:href="#c35imA0Lbf" opacity="1" fill="#8162e4" fill-opacity="1"></use><g><use xlink:href="#c35imA0Lbf" opacity="1" fill-opacity="0" stroke="#000000" stroke-width="1" stroke-opacity="0"></use></g></g><g><use xlink:href="#b2VRaV0bKN" opacity="1" fill="#8162e4" fill-opacity="1"></use><g><use xlink:href="#b2VRaV0bKN" opacity="1" fill-opacity="0" stroke="#000000" stroke-width="1" stroke-opacity="0"></use></g></g><g><use xlink:href="#a1wqQeMis" opacity="1" fill="#57a4ff" fill-opacity="1"></use><g><use xlink:href="#a1wqQeMis" opacity="1" fill-opacity="0" stroke="#000000" stroke-width="1" stroke-opacity="0"></use></g></g><g><use xlink:href="#dsz7m1Xyo" opacity="1" fill="#57a4ff" fill-opacity="1"></use><g><use xlink:href="#dsz7m1Xyo" opacity="1" fill-opacity="0" stroke="#000000" stroke-width="1" stroke-opacity="0"></use></g></g><g><use xlink:href="#ayJNK3rwq" opacity="1" fill="#2b1e55" fill-opacity="1"></use><g><use xlink:href="#ayJNK3rwq" opacity="1" fill-opacity="0" stroke="#000000" stroke-width="1" stroke-opacity="0"></use></g></g><g><use xlink:href="#a2yP8myx1" opacity="1" fill="#2b1e55" fill-opacity="1"></use><g><use xlink:href="#a2yP8myx1" opacity="1" fill-opacity="0" stroke="#000000" stroke-width="1" stroke-opacity="0"></use></g></g><g><use xlink:href="#k32xSAnRg" opacity="1" fill="#2b1e55" fill-opacity="1"></use><g><use xlink:href="#k32xSAnRg" opacity="1" fill-opacity="0" stroke="#000000" stroke-width="1" stroke-opacity="0"></use></g></g><g><use xlink:href="#c2cnPndTsu" opacity="1" fill="#2b1e55" fill-opacity="1"></use><g><use xlink:href="#c2cnPndTsu" opacity="1" fill-opacity="0" stroke="#000000" stroke-width="1" stroke-opacity="0"></use></g></g><g><use xlink:href="#aq2yK0LU" opacity="1" fill="#2b1e55" fill-opacity="1"></use><g><use xlink:href="#aq2yK0LU" opacity="1" fill-opacity="0" stroke="#000000" stroke-width="1" stroke-opacity="0"></use></g></g></g></g></svg>