<?xml version="1.0" encoding="UTF-8" standalone="no"?>
<!DOCTYPE svg PUBLIC "-//W3C//DTD SVG 1.1//EN" "http://www.w3.org/Graphics/SVG/1.1/DTD/svg11.dtd">
<svg version="1.1" xmlns="http://www.w3.org/2000/svg" xmlns:xlink="http://www.w3.org/1999/xlink" preserveAspectRatio="xMidYMid meet" viewBox="0 0 400 400" width="400" height="400"><defs><path d="M77.55 130.62L110.94 130.62L110.94 369.96L77.55 369.96L77.55 130.62Z" id="b1jhaTIRRH"></path><path d="M289.06 130.62L322.45 130.62L322.45 369.96L289.06 369.96L289.06 130.62Z" id="a5niTjW6EP"></path><path d="M255.66 136.19C255.66 119.49 255.66 110.21 255.66 108.36C255.66 99.14 248.18 91.66 238.96 91.66C231.17 91.66 168.83 91.66 161.04 91.66C151.82 91.66 144.34 99.14 144.34 108.36C144.34 110.21 144.34 119.49 144.34 136.19L166.6 136.19L166.6 113.92L233.4 113.92L233.4 136.19L255.66 136.19Z" id="cvlwk03af"></path><path d="M149.91 202.98L133.21 202.98L133.21 164.02L172.17 164.02L172.17 191.85" id="a3aceG1NzA"></path><path d="M267.12 310.89L220.81 341.76L236.24 264.57L267.12 310.89Z" id="cd6CwUfeA"></path><path d="M172.17 191.85C156.8 191.85 144.34 204.31 144.34 219.68C144.34 235.05 156.8 247.51 172.17 247.51C187.54 247.51 200 235.05 200 219.68C200 204.31 187.54 191.85 172.17 191.85Z" id="hkrNq9upH"></path><path d="M328.02 130.63C328.02 127.56 325.53 125.06 322.45 125.06C319.11 125.06 292.4 125.06 289.06 125.06C285.98 125.06 283.49 127.56 283.49 130.63C282.01 130.63 274.58 130.63 261.23 130.63C261.23 117.27 261.23 109.85 261.23 108.37C261.21 96.08 251.25 86.12 238.96 86.1C238.48 86.1 234.59 86.1 234.1 86.1C236.35 77.47 243.52 71 252.34 69.65C253.29 71.55 260.86 86.7 261.81 88.59C262.76 90.48 264.68 91.67 266.79 91.67C273.47 91.67 326.9 91.67 333.58 91.67C336.66 91.67 339.15 89.18 339.15 86.1C339.15 81.65 339.15 46.03 339.15 41.57C339.15 38.5 336.66 36.01 333.58 36.01C326.9 36.01 273.47 36.01 266.79 36.01C264.68 36.01 262.76 37.2 261.81 39.08C260.84 41.02 253.09 56.52 252.13 58.46C237.25 60.07 225.25 71.35 222.74 86.1C216.57 86.1 167.21 86.1 161.04 86.1C148.75 86.12 138.79 96.08 138.77 108.37C138.77 109.85 138.77 117.27 138.77 130.63C125.42 130.63 117.99 130.63 116.51 130.63C116.51 127.56 114.02 125.06 110.94 125.06C107.6 125.06 80.89 125.06 77.55 125.06C74.47 125.06 71.98 127.56 71.98 130.63C70.31 130.63 56.95 130.63 55.28 130.63C39.92 130.64 27.47 143.1 27.45 158.46C27.45 176.83 27.45 323.77 27.45 342.14C27.47 357.5 39.92 369.95 55.28 369.97C56.95 369.97 70.31 369.97 71.98 369.97C71.98 373.04 74.47 375.53 77.55 375.53C80.89 375.53 107.6 375.53 110.94 375.53C114.02 375.53 116.51 373.04 116.51 369.97C133.21 369.97 266.79 369.97 283.49 369.97C283.49 373.04 285.98 375.53 289.06 375.53C292.4 375.53 319.11 375.53 322.45 375.53C325.53 375.53 328.02 373.04 328.02 369.97C329.69 369.97 343.05 369.97 344.72 369.97C360.08 369.95 372.53 357.5 372.55 342.14C372.55 323.77 372.55 176.83 372.55 158.46C372.53 143.1 360.08 130.64 344.72 130.63C344.72 130.63 329.69 130.63 328.02 130.63ZM270.23 47.14L328.02 47.14L328.02 80.54L270.23 80.54L261.88 63.84L270.23 47.14ZM71.98 358.84C61.96 358.84 56.4 358.84 55.28 358.84C46.07 358.82 38.6 351.35 38.59 342.14C38.59 323.77 38.59 176.83 38.59 158.46C38.6 149.24 46.07 141.77 55.28 141.76C56.4 141.76 61.96 141.76 71.98 141.76L71.98 358.84ZM105.38 364.4L83.11 364.4L83.11 136.2L105.38 136.2L105.38 364.4ZM149.91 108.37C149.91 102.22 154.89 97.24 161.04 97.23C168.83 97.23 231.17 97.23 238.96 97.23C245.11 97.24 250.09 102.22 250.09 108.37C250.09 109.85 250.09 117.27 250.09 130.63L238.96 130.63C238.96 120.61 238.96 115.04 238.96 113.93C238.96 110.86 236.47 108.37 233.4 108.37C226.72 108.37 173.28 108.37 166.6 108.37C163.53 108.37 161.04 110.86 161.04 113.93C161.04 115.04 161.04 120.61 161.04 130.63L149.91 130.63C149.91 118.76 149.91 111.33 149.91 108.37ZM227.83 119.5L227.83 130.63L172.17 130.63L172.17 119.5L227.83 119.5ZM283.49 358.84L116.51 358.84L116.51 141.76L283.49 141.76L283.49 358.84ZM316.89 364.4L294.62 364.4L294.62 136.2L316.89 136.2L316.89 364.4ZM361.41 342.14C361.4 351.35 353.93 358.82 344.72 358.84C343.6 358.84 338.04 358.84 328.02 358.84L328.02 141.76C338.04 141.76 343.6 141.76 344.72 141.76C353.93 141.77 361.4 149.24 361.41 158.46C361.41 195.2 361.41 305.4 361.41 342.14Z" id="c3UXBz37qk"></path><path d="M240.88 261.49C239.17 258.93 235.71 258.24 233.16 259.94C231.93 260.76 231.08 262.04 230.79 263.48C229.24 271.2 216.89 332.95 215.35 340.67C214.75 343.68 216.7 346.62 219.72 347.22C221.16 347.51 222.67 347.21 223.89 346.39C228.53 343.3 265.57 318.6 270.21 315.52C272.76 313.81 273.45 310.36 271.75 307.8C265.58 298.54 243.96 266.12 240.88 261.49ZM228.9 329.68L239.07 278.84L259.4 309.34L228.9 329.68Z" id="g1cEiuSc1S"></path><path d="M177.74 164.02C177.74 160.94 175.24 158.45 172.17 158.45C168.27 158.45 137.1 158.45 133.21 158.45C130.13 158.45 127.64 160.94 127.64 164.02C127.64 167.91 127.64 199.08 127.64 202.98C127.64 206.05 130.13 208.55 133.21 208.55C133.96 208.55 139.94 208.55 140.69 208.55C134.54 225.93 143.65 245.02 161.03 251.17C178.42 257.32 197.51 248.21 203.66 230.82C209.81 213.43 200.7 194.35 183.31 188.2C181.5 187.56 179.63 187.07 177.74 186.75C177.74 182.21 177.74 166.29 177.74 164.02ZM138.77 197.41L138.77 169.58L166.6 169.58C166.6 179.89 166.6 185.61 166.6 186.75C159.15 188.02 152.34 191.78 147.3 197.41C146.17 197.41 143.32 197.41 138.77 197.41ZM149.91 219.68C149.91 207.38 159.87 197.41 172.17 197.41C184.47 197.41 194.43 207.38 194.43 219.68C194.42 231.97 184.46 241.93 172.17 241.94C159.87 241.94 149.91 231.97 149.91 219.68Z" id="d3kSBD4YVz"></path></defs><g><g><g><use xlink:href="#b1jhaTIRRH" opacity="1" fill="#8162e4" fill-opacity="1"></use><g><use xlink:href="#b1jhaTIRRH" opacity="1" fill-opacity="0" stroke="#000000" stroke-width="1" stroke-opacity="0"></use></g></g><g><use xlink:href="#a5niTjW6EP" opacity="1" fill="#8162e4" fill-opacity="1"></use><g><use xlink:href="#a5niTjW6EP" opacity="1" fill-opacity="0" stroke="#000000" stroke-width="1" stroke-opacity="0"></use></g></g><g><use xlink:href="#cvlwk03af" opacity="1" fill="#8162e4" fill-opacity="1"></use><g><use xlink:href="#cvlwk03af" opacity="1" fill-opacity="0" stroke="#000000" stroke-width="1" stroke-opacity="0"></use></g></g><g><use xlink:href="#a3aceG1NzA" opacity="1" fill="#8162e4" fill-opacity="1"></use><g><use xlink:href="#a3aceG1NzA" opacity="1" fill-opacity="0" stroke="#000000" stroke-width="1" stroke-opacity="0"></use></g></g><g><use xlink:href="#cd6CwUfeA" opacity="1" fill="#8162e4" fill-opacity="1"></use><g><use xlink:href="#cd6CwUfeA" opacity="1" fill-opacity="0" stroke="#000000" stroke-width="1" stroke-opacity="0"></use></g></g><g><use xlink:href="#hkrNq9upH" opacity="1" fill="#8162e4" fill-opacity="1"></use><g><use xlink:href="#hkrNq9upH" opacity="1" fill-opacity="0" stroke="#000000" stroke-width="1" stroke-opacity="0"></use></g></g><g><use xlink:href="#c3UXBz37qk" opacity="1" fill="#2b1e55" fill-opacity="1"></use><g><use xlink:href="#c3UXBz37qk" opacity="1" fill-opacity="0" stroke="#000000" stroke-width="1" stroke-opacity="0"></use></g></g><g><use xlink:href="#g1cEiuSc1S" opacity="1" fill="#2b1e55" fill-opacity="1"></use><g><use xlink:href="#g1cEiuSc1S" opacity="1" fill-opacity="0" stroke="#000000" stroke-width="1" stroke-opacity="0"></use></g></g><g><use xlink:href="#d3kSBD4YVz" opacity="1" fill="#2b1e55" fill-opacity="1"></use><g><use xlink:href="#d3kSBD4YVz" opacity="1" fill-opacity="0" stroke="#000000" stroke-width="1" stroke-opacity="0"></use></g></g></g></g></svg>